<?xml version="1.0" encoding="UTF-8" standalone="no"?>
<!-- Created with Inkscape (http://www.inkscape.org/) -->

<svg
   width="512"
   height="512"
   viewBox="0 0 512 512"
   version="1.1"
   id="svg1"
   xml:space="preserve"
   xmlns="http://www.w3.org/2000/svg"
   xmlns:svg="http://www.w3.org/2000/svg"><defs
     id="defs1" /><g
     id="layer1"><rect
       style="fill:#050511;fill-opacity:1"
       id="rect1"
       width="512"
       height="512"
       x="0"
       y="0" /></g><g
     id="layer2"><path
       id="path4"
       style="fill:#ffffff;stroke-width:0.200323"
       d="m 90.58158,85.590849 c 0,0.146407 -2.500219,0.58212 -3.362928,1.44483 -0.86271,0.86271 -1.298423,3.362929 -1.444829,3.362929 -0.146408,0 -0.58212,-2.500219 -1.44483,-3.362929 -0.862709,-0.86271 -3.362929,-1.298423 -3.362929,-1.44483 0,-0.146406 2.50022,-0.582119 3.362929,-1.444829 0.86271,-0.862708 1.298422,-3.362929 1.44483,-3.362929 0.146406,0 0.582119,2.500221 1.444829,3.362929 0.862709,0.86271 3.362928,1.298423 3.362928,1.444829 z" /><path
       id="path4-2"
       style="fill:#ffffff;stroke-width:0.200323"
       d="m 174.61552,162.80776 c 0,0.1464 -2.50022,0.58212 -3.36293,1.44483 -0.86271,0.86271 -1.29843,3.36293 -1.44483,3.36293 -0.14641,0 -0.58212,-2.50022 -1.44483,-3.36293 C 167.50022,163.38988 165,162.95416 165,162.80776 c 0,-0.14641 2.50022,-0.58212 3.36293,-1.44483 0.86271,-0.86271 1.29842,-3.36293 1.44483,-3.36293 0.1464,0 0.58212,2.50022 1.44483,3.36293 0.86271,0.86271 3.36293,1.29842 3.36293,1.44483 z" /><path
       id="path4-7"
       style="fill:#ffffff;stroke-width:0.200323"
       d="m 343.61552,184.80776 c 0,0.1464 -2.50022,0.58212 -3.36293,1.44483 -0.86271,0.86271 -1.29842,3.36293 -1.44483,3.36293 -0.1464,0 -0.58212,-2.50022 -1.44483,-3.36293 C 336.50022,185.38988 334,184.95416 334,184.80776 c 0,-0.14641 2.50022,-0.58212 3.36293,-1.44483 0.86271,-0.86271 1.29843,-3.36293 1.44483,-3.36293 0.14641,0 0.58212,2.50022 1.44483,3.36293 0.86271,0.86271 3.36293,1.29842 3.36293,1.44483 z" /><path
       id="path4-6"
       style="fill:#ffffff;stroke-width:0.200323"
       d="m 178.61552,305.80776 c 0,0.14641 -2.50022,0.58212 -3.36293,1.44483 -0.86271,0.86271 -1.29843,3.36293 -1.44483,3.36293 -0.14641,0 -0.58212,-2.50022 -1.44483,-3.36293 C 171.50022,306.38988 169,305.95417 169,305.80776 c 0,-0.14641 2.50022,-0.58212 3.36293,-1.44483 0.86271,-0.86271 1.29842,-3.36293 1.44483,-3.36293 0.1464,0 0.58212,2.50022 1.44483,3.36293 0.86271,0.86271 3.36293,1.29842 3.36293,1.44483 z" /><path
       id="path4-61"
       style="fill:#ffffff;stroke-width:0.200323"
       d="m 55.615516,269.80776 c 0,0.14641 -2.500219,0.58212 -3.362928,1.44483 -0.86271,0.86271 -1.298423,3.36293 -1.444829,3.36293 -0.146408,0 -0.58212,-2.50022 -1.44483,-3.36293 C 48.50022,270.38988 46,269.95417 46,269.80776 c 0,-0.14641 2.50022,-0.58212 3.362929,-1.44483 0.86271,-0.86271 1.298422,-3.36293 1.44483,-3.36293 0.146406,0 0.582119,2.50022 1.444829,3.36293 0.862709,0.86271 3.362928,1.29842 3.362928,1.44483 z" /><path
       id="path4-20"
       style="fill:#ffffff;stroke-width:0.200323"
       d="m 110.61552,151.80776 c 0,0.1464 -2.50022,0.58212 -3.36293,1.44483 -0.86271,0.86271 -1.29842,3.36293 -1.44483,3.36293 -0.14641,0 -0.58212,-2.50022 -1.44483,-3.36293 C 103.50022,152.38988 101,151.95416 101,151.80776 c 0,-0.14641 2.50022,-0.58212 3.36293,-1.44483 0.86271,-0.86271 1.29842,-3.36293 1.44483,-3.36293 0.14641,0 0.58212,2.50022 1.44483,3.36293 0.86271,0.86271 3.36293,1.29842 3.36293,1.44483 z" /><path
       id="path4-5"
       style="fill:#ffffff;stroke-width:0.200323"
       d="m 332.61552,61.807758 c 0,0.146407 -2.50022,0.58212 -3.36293,1.44483 -0.86271,0.86271 -1.29842,3.362929 -1.44483,3.362929 -0.1464,0 -0.58212,-2.500219 -1.44483,-3.362929 C 325.50022,62.389878 323,61.954165 323,61.807758 c 0,-0.146406 2.50022,-0.582119 3.36293,-1.444829 C 327.22564,59.500221 327.66136,57 327.80776,57 c 0.14641,0 0.58212,2.500221 1.44483,3.362929 0.86271,0.86271 3.36293,1.298423 3.36293,1.444829 z" /><path
       id="path4-8"
       style="fill:#ffffff;stroke-width:0.200323"
       d="m 387.61552,274.80776 c 0,0.14641 -2.50022,0.58212 -3.36293,1.44483 -0.86271,0.86271 -1.29842,3.36293 -1.44483,3.36293 -0.14641,0 -0.58212,-2.50022 -1.44483,-3.36293 C 380.50022,275.38988 378,274.95417 378,274.80776 c 0,-0.14641 2.50022,-0.58212 3.36293,-1.44483 0.86271,-0.86271 1.29842,-3.36293 1.44483,-3.36293 0.14641,0 0.58212,2.50022 1.44483,3.36293 0.86271,0.86271 3.36293,1.29842 3.36293,1.44483 z" /><path
       id="path4-612"
       style="fill:#ffffff;stroke-width:0.200323"
       d="m 290.61552,330.80776 c 0,0.14641 -2.50022,0.58212 -3.36293,1.44483 -0.86271,0.86271 -1.29842,3.36293 -1.44483,3.36293 -0.1464,0 -0.58212,-2.50022 -1.44483,-3.36293 C 283.50022,331.38988 281,330.95417 281,330.80776 c 0,-0.14641 2.50022,-0.58212 3.36293,-1.44483 0.86271,-0.86271 1.29843,-3.36293 1.44483,-3.36293 0.14641,0 0.58212,2.50022 1.44483,3.36293 0.86271,0.86271 3.36293,1.29842 3.36293,1.44483 z" /><path
       id="path4-9"
       style="fill:#ffffff;stroke-width:0.200323"
       d="m 199.61552,417.80776 c 0,0.14641 -2.50022,0.58212 -3.36293,1.44483 -0.86271,0.86271 -1.29842,3.36293 -1.44483,3.36293 -0.1464,0 -0.58212,-2.50022 -1.44483,-3.36293 C 192.50022,418.38988 190,417.95417 190,417.80776 c 0,-0.14641 2.50022,-0.58212 3.36293,-1.44483 0.86271,-0.86271 1.29843,-3.36293 1.44483,-3.36293 0.14641,0 0.58212,2.50022 1.44483,3.36293 0.86271,0.86271 3.36293,1.29842 3.36293,1.44483 z" /><path
       id="path4-4"
       style="fill:#ffffff;stroke-width:0.200323"
       d="m 48.615516,438.80776 c 0,0.14641 -2.500219,0.58212 -3.362928,1.44483 -0.86271,0.86271 -1.298423,3.36293 -1.444829,3.36293 -0.146408,0 -0.58212,-2.50022 -1.44483,-3.36293 C 41.50022,439.38988 39,438.95417 39,438.80776 c 0,-0.14641 2.50022,-0.58212 3.362929,-1.44483 0.86271,-0.86271 1.298422,-3.36293 1.44483,-3.36293 0.146406,0 0.582119,2.50022 1.444829,3.36293 0.862709,0.86271 3.362928,1.29842 3.362928,1.44483 z" /><path
       id="path4-610"
       style="fill:#ffffff;stroke-width:0.200323"
       d="m 448.61552,460.80776 c 0,0.14641 -2.50022,0.58212 -3.36293,1.44483 -0.86271,0.86271 -1.29842,3.36293 -1.44483,3.36293 -0.14641,0 -0.58212,-2.50022 -1.44483,-3.36293 C 441.50022,461.38988 439,460.95417 439,460.80776 c 0,-0.14641 2.50022,-0.58212 3.36293,-1.44483 0.86271,-0.86271 1.29842,-3.36293 1.44483,-3.36293 0.14641,0 0.58212,2.50022 1.44483,3.36293 0.86271,0.86271 3.36293,1.29842 3.36293,1.44483 z" /><path
       id="path4-0"
       style="fill:#ffffff;stroke-width:0.200323"
       d="m 104.61552,349.80776 c 0,0.14641 -2.50022,0.58212 -3.36293,1.44483 -0.86271,0.86271 -1.298425,3.36293 -1.444831,3.36293 -0.146408,0 -0.58212,-2.50022 -1.44483,-3.36293 C 97.50022,350.38988 95,349.95417 95,349.80776 c 0,-0.14641 2.50022,-0.58212 3.362929,-1.44483 0.86271,-0.86271 1.298422,-3.36293 1.44483,-3.36293 0.146406,0 0.582121,2.50022 1.444831,3.36293 0.86271,0.86271 3.36293,1.29842 3.36293,1.44483 z" /><path
       id="path4-54"
       style="fill:#ffffff;stroke-width:0.200323"
       d="m 208.61552,469.80776 c 0,0.14641 -2.50022,0.58212 -3.36293,1.44483 -0.86271,0.86271 -1.29842,3.36293 -1.44483,3.36293 -0.1464,0 -0.58212,-2.50022 -1.44483,-3.36293 C 201.50022,470.38988 199,469.95417 199,469.80776 c 0,-0.14641 2.50022,-0.58212 3.36293,-1.44483 0.86271,-0.86271 1.29843,-3.36293 1.44483,-3.36293 0.14641,0 0.58212,2.50022 1.44483,3.36293 0.86271,0.86271 3.36293,1.29842 3.36293,1.44483 z" /><path
       id="path4-69"
       style="fill:#ffffff;stroke-width:0.200323"
       d="m 365.61552,410.80776 c 0,0.14641 -2.50022,0.58212 -3.36293,1.44483 -0.86271,0.86271 -1.29842,3.36293 -1.44483,3.36293 -0.14641,0 -0.58212,-2.50022 -1.44483,-3.36293 C 358.50022,411.38988 356,410.95417 356,410.80776 c 0,-0.14641 2.50022,-0.58212 3.36293,-1.44483 0.86271,-0.86271 1.29842,-3.36293 1.44483,-3.36293 0.14641,0 0.58212,2.50022 1.44483,3.36293 0.86271,0.86271 3.36293,1.29842 3.36293,1.44483 z" /><path
       id="path4-52"
       style="fill:#ffffff;stroke-width:0.200323"
       d="m 305.61552,282.80776 c 0,0.14641 -2.50022,0.58212 -3.36293,1.44483 -0.86271,0.86271 -1.29842,3.36293 -1.44483,3.36293 -0.1464,0 -0.58212,-2.50022 -1.44483,-3.36293 C 298.50022,283.38988 296,282.95417 296,282.80776 c 0,-0.14641 2.50022,-0.58212 3.36293,-1.44483 0.86271,-0.86271 1.29843,-3.36293 1.44483,-3.36293 0.14641,0 0.58212,2.50022 1.44483,3.36293 0.86271,0.86271 3.36293,1.29842 3.36293,1.44483 z" /><path
       id="path4-44"
       style="fill:#ffffff;stroke-width:0.200323"
       d="m 386.61552,119.80776 c 0,0.14641 -2.50022,0.58212 -3.36293,1.44483 -0.86271,0.86271 -1.29842,3.36293 -1.44483,3.36293 -0.14641,0 -0.58212,-2.50022 -1.44483,-3.36293 C 379.50022,120.38988 377,119.95417 377,119.80776 c 0,-0.14641 2.50022,-0.58212 3.36293,-1.44483 0.86271,-0.86271 1.29842,-3.36293 1.44483,-3.36293 0.14641,0 0.58212,2.50022 1.44483,3.36293 0.86271,0.86271 3.36293,1.29842 3.36293,1.44483 z" /><path
       id="path4-44-1"
       style="fill:#ffffff;stroke-width:0.200323"
       d="m 443.61552,101.80776 c 0,0.14641 -2.50022,0.58212 -3.36293,1.44483 -0.86271,0.86271 -1.29842,3.36293 -1.44483,3.36293 -0.14641,0 -0.58212,-2.50022 -1.44483,-3.36293 C 436.50022,102.38988 434,101.95417 434,101.80776 c 0,-0.14641 2.50022,-0.58212 3.36293,-1.44483 C 438.22564,99.50022 438.66135,97 438.80776,97 c 0.14641,0 0.58212,2.50022 1.44483,3.36293 0.86271,0.86271 3.36293,1.29842 3.36293,1.44483 z" /><path
       id="path4-44-0"
       style="fill:#ffffff;stroke-width:0.200323"
       d="m 441.61552,163.80776 c 0,0.14641 -2.50022,0.58212 -3.36293,1.44483 -0.86271,0.86271 -1.29842,3.36293 -1.44483,3.36293 -0.14641,0 -0.58212,-2.50022 -1.44483,-3.36293 C 434.50022,164.38988 432,163.95417 432,163.80776 c 0,-0.14641 2.50022,-0.58212 3.36293,-1.44483 0.86271,-0.86271 1.29842,-3.36293 1.44483,-3.36293 0.14641,0 0.58212,2.50022 1.44483,3.36293 0.86271,0.86271 3.36293,1.29842 3.36293,1.44483 z" /><path
       id="path4-44-2"
       style="fill:#ffffff;stroke-width:0.200323"
       d="m 465.61552,81.80776 c 0,0.14641 -2.50022,0.58212 -3.36293,1.44483 -0.86271,0.86271 -1.29842,3.36293 -1.44483,3.36293 -0.14641,0 -0.58212,-2.50022 -1.44483,-3.36293 C 458.50022,82.38988 456,81.95417 456,81.80776 c 0,-0.14641 2.50022,-0.58212 3.36293,-1.44483 C 460.22564,79.50022 460.66135,77 460.80776,77 c 0.14641,0 0.58212,2.50022 1.44483,3.36293 0.86271,0.86271 3.36293,1.29842 3.36293,1.44483 z" /><path
       id="path4-44-28"
       style="fill:#ffffff;stroke-width:0.200323"
       d="m 464.61552,25.80776 c 0,0.14641 -2.50022,0.58212 -3.36293,1.44483 -0.86271,0.86271 -1.29842,3.36293 -1.44483,3.36293 -0.14641,0 -0.58212,-2.50022 -1.44483,-3.36293 C 457.50022,26.38988 455,25.95417 455,25.80776 c 0,-0.14641 2.50022,-0.58212 3.36293,-1.44483 C 459.22564,23.50022 459.66135,21 459.80776,21 c 0.14641,0 0.58212,2.50022 1.44483,3.36293 0.86271,0.86271 3.36293,1.29842 3.36293,1.44483 z" /><path
       id="path4-44-4"
       style="fill:#ffffff;stroke-width:0.200323"
       d="m 314.61552,24.80776 c 0,0.14641 -2.50022,0.58212 -3.36293,1.44483 -0.86271,0.86271 -1.29842,3.36293 -1.44483,3.36293 -0.14641,0 -0.58212,-2.50022 -1.44483,-3.36293 C 307.50022,25.38988 305,24.95417 305,24.80776 c 0,-0.14641 2.50022,-0.58212 3.36293,-1.44483 C 309.22564,22.50022 309.66135,20 309.80776,20 c 0.14641,0 0.58212,2.50022 1.44483,3.36293 0.86271,0.86271 3.36293,1.29842 3.36293,1.44483 z" /><path
       id="path4-86"
       style="fill:#ffffff;stroke-width:0.200323"
       d="m 264.61552,127.80776 c 0,0.14641 -2.50022,0.58212 -3.36293,1.44483 -0.86271,0.86271 -1.29842,3.36293 -1.44483,3.36293 -0.1464,0 -0.58212,-2.50022 -1.44483,-3.36293 C 257.50022,128.38988 255,127.95417 255,127.80776 c 0,-0.14641 2.50022,-0.58212 3.36293,-1.44483 0.86271,-0.86271 1.29843,-3.36293 1.44483,-3.36293 0.14641,0 0.58212,2.50022 1.44483,3.36293 0.86271,0.86271 3.36293,1.29842 3.36293,1.44483 z" /><path
       id="path4-3"
       style="fill:#ffffff;stroke-width:0.200323"
       d="m 251.61552,212.80776 c 0,0.14641 -2.50022,0.58212 -3.36293,1.44483 -0.86271,0.86271 -1.29842,3.36293 -1.44483,3.36293 -0.1464,0 -0.58212,-2.50022 -1.44483,-3.36293 C 244.50022,213.38988 242,212.95417 242,212.80776 c 0,-0.14641 2.50022,-0.58212 3.36293,-1.44483 0.86271,-0.86271 1.29843,-3.36293 1.44483,-3.36293 0.14641,0 0.58212,2.50022 1.44483,3.36293 0.86271,0.86271 3.36293,1.29842 3.36293,1.44483 z" /><path
       id="path4-206"
       style="fill:#ffffff;stroke-width:0.200323"
       d="m 194.61552,81.807758 c 0,0.146407 -2.50022,0.58212 -3.36293,1.44483 -0.86271,0.86271 -1.29842,3.362929 -1.44483,3.362929 -0.1464,0 -0.58212,-2.500219 -1.44483,-3.362929 C 187.50022,82.389878 185,81.954165 185,81.807758 c 0,-0.146406 2.50022,-0.582119 3.36293,-1.444829 C 189.22564,79.500221 189.66136,77 189.80776,77 c 0.14641,0 0.58212,2.500221 1.44483,3.362929 0.86271,0.86271 3.36293,1.298423 3.36293,1.444829 z" /><path
       id="path4-66"
       style="fill:#ffffff;stroke-width:0.0899202"
       d="m 177.96585,227.80776 c 0,0.0657 -1.12229,0.2613 -1.50954,0.64855 -0.38725,0.38725 -0.58283,1.50954 -0.64855,1.50954 -0.0657,0 -0.2613,-1.12229 -0.64855,-1.50954 -0.38725,-0.38725 -1.50954,-0.58283 -1.50954,-0.64855 0,-0.0657 1.12229,-0.2613 1.50954,-0.64855 0.38725,-0.38725 0.58283,-1.50954 0.64855,-1.50954 0.0657,0 0.2613,1.12229 0.64855,1.50954 0.38725,0.38725 1.50954,0.58283 1.50954,0.64855 z" /><path
       id="path4-66-0"
       style="fill:#ffffff;stroke-width:0.0899202"
       d="m 264.31618,256.15809 c 0,0.0657 -1.12229,0.2613 -1.50954,0.64855 -0.38725,0.38725 -0.58283,1.50954 -0.64855,1.50954 -0.0657,0 -0.2613,-1.12229 -0.64855,-1.50954 C 261.12229,256.41939 260,256.22381 260,256.15809 c 0,-0.0657 1.12229,-0.2613 1.50954,-0.64855 0.38725,-0.38725 0.58283,-1.50954 0.64855,-1.50954 0.0657,0 0.2613,1.12229 0.64855,1.50954 0.38725,0.38725 1.50954,0.58283 1.50954,0.64855 z" /><path
       id="path4-66-1"
       style="fill:#ffffff;stroke-width:0.0899202"
       d="m 272.31618,169.15809 c 0,0.0657 -1.12229,0.2613 -1.50954,0.64855 -0.38725,0.38725 -0.58283,1.50954 -0.64855,1.50954 -0.0657,0 -0.2613,-1.12229 -0.64855,-1.50954 C 269.12229,169.41939 268,169.22381 268,169.15809 c 0,-0.0657 1.12229,-0.2613 1.50954,-0.64855 0.38725,-0.38725 0.58283,-1.50954 0.64855,-1.50954 0.0657,0 0.2613,1.12229 0.64855,1.50954 0.38725,0.38725 1.50954,0.58283 1.50954,0.64855 z" /><path
       id="path4-66-2"
       style="fill:#ffffff;stroke-width:0.0899202"
       d="m 138.31618,218.15809 c 0,0.0657 -1.12229,0.2613 -1.50954,0.64855 -0.38725,0.38725 -0.58283,1.50954 -0.64855,1.50954 -0.0657,0 -0.2613,-1.12229 -0.64855,-1.50954 C 135.12229,218.41939 134,218.22381 134,218.15809 c 0,-0.0657 1.12229,-0.2613 1.50954,-0.64855 0.38725,-0.38725 0.58283,-1.50954 0.64855,-1.50954 0.0657,0 0.2613,1.12229 0.64855,1.50954 0.38725,0.38725 1.50954,0.58283 1.50954,0.64855 z" /><path
       id="path4-66-06"
       style="fill:#ffffff;stroke-width:0.0899202"
       d="m 139.31618,317.15809 c 0,0.0657 -1.12229,0.2613 -1.50954,0.64855 -0.38725,0.38725 -0.58283,1.50954 -0.64855,1.50954 -0.0657,0 -0.2613,-1.12229 -0.64855,-1.50954 C 136.12229,317.41939 135,317.22381 135,317.15809 c 0,-0.0657 1.12229,-0.2613 1.50954,-0.64855 0.38725,-0.38725 0.58283,-1.50954 0.64855,-1.50954 0.0657,0 0.2613,1.12229 0.64855,1.50954 0.38725,0.38725 1.50954,0.58283 1.50954,0.64855 z" /><path
       id="path4-66-4"
       style="fill:#ffffff;stroke-width:0.0899202"
       d="m 207.31618,391.15809 c 0,0.0657 -1.12229,0.2613 -1.50954,0.64855 -0.38725,0.38725 -0.58283,1.50954 -0.64855,1.50954 -0.0657,0 -0.2613,-1.12229 -0.64855,-1.50954 C 204.12229,391.41939 203,391.22381 203,391.15809 c 0,-0.0657 1.12229,-0.2613 1.50954,-0.64855 0.38725,-0.38725 0.58283,-1.50954 0.64855,-1.50954 0.0657,0 0.2613,1.12229 0.64855,1.50954 0.38725,0.38725 1.50954,0.58283 1.50954,0.64855 z" /><path
       id="path4-66-17"
       style="fill:#ffffff;stroke-width:0.0899202"
       d="m 212.31618,326.15809 c 0,0.0657 -1.12229,0.2613 -1.50954,0.64855 -0.38725,0.38725 -0.58283,1.50954 -0.64855,1.50954 -0.0657,0 -0.2613,-1.12229 -0.64855,-1.50954 C 209.12229,326.41939 208,326.22381 208,326.15809 c 0,-0.0657 1.12229,-0.2613 1.50954,-0.64855 0.38725,-0.38725 0.58283,-1.50954 0.64855,-1.50954 0.0657,0 0.2613,1.12229 0.64855,1.50954 0.38725,0.38725 1.50954,0.58283 1.50954,0.64855 z" /><path
       id="path4-66-5"
       style="fill:#ffffff;stroke-width:0.0899202"
       d="m 221.31618,290.15809 c 0,0.0657 -1.12229,0.2613 -1.50954,0.64855 -0.38725,0.38725 -0.58283,1.50954 -0.64855,1.50954 -0.0657,0 -0.2613,-1.12229 -0.64855,-1.50954 C 218.12229,290.41939 217,290.22381 217,290.15809 c 0,-0.0657 1.12229,-0.2613 1.50954,-0.64855 0.38725,-0.38725 0.58283,-1.50954 0.64855,-1.50954 0.0657,0 0.2613,1.12229 0.64855,1.50954 0.38725,0.38725 1.50954,0.58283 1.50954,0.64855 z" /><path
       id="path4-66-6"
       style="fill:#ffffff;stroke-width:0.0899202"
       d="m 353.31618,316.15809 c 0,0.0657 -1.12229,0.2613 -1.50954,0.64855 -0.38725,0.38725 -0.58283,1.50954 -0.64855,1.50954 -0.0657,0 -0.2613,-1.12229 -0.64855,-1.50954 C 350.12229,316.41939 349,316.22381 349,316.15809 c 0,-0.0657 1.12229,-0.2613 1.50954,-0.64855 0.38725,-0.38725 0.58283,-1.50954 0.64855,-1.50954 0.0657,0 0.2613,1.12229 0.64855,1.50954 0.38725,0.38725 1.50954,0.58283 1.50954,0.64855 z" /><path
       id="path4-66-56"
       style="fill:#ffffff;stroke-width:0.0899202"
       d="m 294.31618,382.15809 c 0,0.0657 -1.12229,0.2613 -1.50954,0.64855 -0.38725,0.38725 -0.58283,1.50954 -0.64855,1.50954 -0.0657,0 -0.2613,-1.12229 -0.64855,-1.50954 C 291.12229,382.41939 290,382.22381 290,382.15809 c 0,-0.0657 1.12229,-0.2613 1.50954,-0.64855 0.38725,-0.38725 0.58283,-1.50954 0.64855,-1.50954 0.0657,0 0.2613,1.12229 0.64855,1.50954 0.38725,0.38725 1.50954,0.58283 1.50954,0.64855 z" /><path
       id="path4-66-8"
       style="fill:#ffffff;stroke-width:0.0899202"
       d="m 399.31618,372.15809 c 0,0.0657 -1.12229,0.2613 -1.50954,0.64855 -0.38725,0.38725 -0.58283,1.50954 -0.64855,1.50954 -0.0657,0 -0.2613,-1.12229 -0.64855,-1.50954 C 396.12229,372.41939 395,372.22381 395,372.15809 c 0,-0.0657 1.12229,-0.2613 1.50954,-0.64855 0.38725,-0.38725 0.58283,-1.50954 0.64855,-1.50954 0.0657,0 0.2613,1.12229 0.64855,1.50954 0.38725,0.38725 1.50954,0.58283 1.50954,0.64855 z" /><path
       id="path4-66-3"
       style="fill:#ffffff;stroke-width:0.0899202"
       d="m 87.31618,382.15809 c 0,0.0657 -1.12229,0.2613 -1.50954,0.64855 -0.38725,0.38725 -0.58283,1.50954 -0.64855,1.50954 -0.0657,0 -0.2613,-1.12229 -0.64855,-1.50954 C 84.12229,382.41939 83,382.22381 83,382.15809 c 0,-0.0657 1.12229,-0.2613 1.50954,-0.64855 C 84.89679,381.12229 85.09237,380 85.15809,380 c 0.0657,0 0.2613,1.12229 0.64855,1.50954 0.38725,0.38725 1.50954,0.58283 1.50954,0.64855 z" /><path
       id="path4-66-85"
       style="fill:#ffffff;stroke-width:0.0899202"
       d="m 120.31618,411.15809 c 0,0.0657 -1.12229,0.2613 -1.50954,0.64855 -0.38725,0.38725 -0.58283,1.50954 -0.64855,1.50954 -0.0657,0 -0.2613,-1.12229 -0.64855,-1.50954 C 117.12229,411.41939 116,411.22381 116,411.15809 c 0,-0.0657 1.12229,-0.2613 1.50954,-0.64855 0.38725,-0.38725 0.58283,-1.50954 0.64855,-1.50954 0.0657,0 0.2613,1.12229 0.64855,1.50954 0.38725,0.38725 1.50954,0.58283 1.50954,0.64855 z" /><path
       id="path4-66-38"
       style="fill:#ffffff;stroke-width:0.0899202"
       d="m 152.31618,385.15809 c 0,0.0657 -1.12229,0.2613 -1.50954,0.64855 -0.38725,0.38725 -0.58283,1.50954 -0.64855,1.50954 -0.0657,0 -0.2613,-1.12229 -0.64855,-1.50954 C 149.12229,385.41939 148,385.22381 148,385.15809 c 0,-0.0657 1.12229,-0.2613 1.50954,-0.64855 0.38725,-0.38725 0.58283,-1.50954 0.64855,-1.50954 0.0657,0 0.2613,1.12229 0.64855,1.50954 0.38725,0.38725 1.50954,0.58283 1.50954,0.64855 z" /><path
       id="path4-66-15"
       style="fill:#ffffff;stroke-width:0.0899202"
       d="m 60.31618,326.15809 c 0,0.0657 -1.12229,0.2613 -1.50954,0.64855 -0.38725,0.38725 -0.58283,1.50954 -0.64855,1.50954 -0.0657,0 -0.2613,-1.12229 -0.64855,-1.50954 C 57.12229,326.41939 56,326.22381 56,326.15809 c 0,-0.0657 1.12229,-0.2613 1.50954,-0.64855 C 57.89679,325.12229 58.09237,324 58.15809,324 c 0.0657,0 0.2613,1.12229 0.64855,1.50954 0.38725,0.38725 1.50954,0.58283 1.50954,0.64855 z" /><path
       id="path4-66-81"
       style="fill:#ffffff;stroke-width:0.0899202"
       d="m 41.31618,378.15809 c 0,0.0657 -1.12229,0.2613 -1.50954,0.64855 -0.38725,0.38725 -0.58283,1.50954 -0.64855,1.50954 -0.0657,0 -0.2613,-1.12229 -0.64855,-1.50954 C 38.12229,378.41939 37,378.22381 37,378.15809 c 0,-0.0657 1.12229,-0.2613 1.50954,-0.64855 C 38.89679,377.12229 39.09237,376 39.15809,376 c 0.0657,0 0.2613,1.12229 0.64855,1.50954 0.38725,0.38725 1.50954,0.58283 1.50954,0.64855 z" /><path
       id="path4-66-44"
       style="fill:#ffffff;stroke-width:0.0899202"
       d="m 110.31618,274.15809 c 0,0.0657 -1.12229,0.2613 -1.50954,0.64855 -0.38725,0.38725 -0.58283,1.50954 -0.64855,1.50954 -0.0657,0 -0.2613,-1.12229 -0.64855,-1.50954 C 107.12229,274.41939 106,274.22381 106,274.15809 c 0,-0.0657 1.12229,-0.2613 1.50954,-0.64855 0.38725,-0.38725 0.58283,-1.50954 0.64855,-1.50954 0.0657,0 0.2613,1.12229 0.64855,1.50954 0.38725,0.38725 1.50954,0.58283 1.50954,0.64855 z" /><path
       id="path4-66-63"
       style="fill:#ffffff;stroke-width:0.0899202"
       d="m 68.31618,223.15809 c 0,0.0657 -1.12229,0.2613 -1.50954,0.64855 -0.38725,0.38725 -0.58283,1.50954 -0.64855,1.50954 -0.0657,0 -0.2613,-1.12229 -0.64855,-1.50954 C 65.12229,223.41939 64,223.22381 64,223.15809 c 0,-0.0657 1.12229,-0.2613 1.50954,-0.64855 C 65.89679,222.12229 66.09237,221 66.15809,221 c 0.0657,0 0.2613,1.12229 0.64855,1.50954 0.38725,0.38725 1.50954,0.58283 1.50954,0.64855 z" /><path
       id="path4-66-9"
       style="fill:#ffffff;stroke-width:0.0899202"
       d="m 166.31618,265.15809 c 0,0.0657 -1.12229,0.2613 -1.50954,0.64855 -0.38725,0.38725 -0.58283,1.50954 -0.64855,1.50954 -0.0657,0 -0.2613,-1.12229 -0.64855,-1.50954 C 163.12229,265.41939 162,265.22381 162,265.15809 c 0,-0.0657 1.12229,-0.2613 1.50954,-0.64855 0.38725,-0.38725 0.58283,-1.50954 0.64855,-1.50954 0.0657,0 0.2613,1.12229 0.64855,1.50954 0.38725,0.38725 1.50954,0.58283 1.50954,0.64855 z" /><path
       id="path4-66-7"
       style="fill:#ffffff;stroke-width:0.0899202"
       d="m 67.31618,168.15809 c 0,0.0657 -1.12229,0.2613 -1.50954,0.64855 -0.38725,0.38725 -0.58283,1.50954 -0.64855,1.50954 -0.0657,0 -0.2613,-1.12229 -0.64855,-1.50954 C 64.12229,168.41939 63,168.22381 63,168.15809 c 0,-0.0657 1.12229,-0.2613 1.50954,-0.64855 C 64.89679,167.12229 65.09237,166 65.15809,166 c 0.0657,0 0.2613,1.12229 0.64855,1.50954 0.38725,0.38725 1.50954,0.58283 1.50954,0.64855 z" /><path
       id="path4-66-41"
       style="fill:#ffffff;stroke-width:0.0899202"
       d="m 35.31618,107.15809 c 0,0.0657 -1.12229,0.2613 -1.50954,0.64855 -0.38725,0.38725 -0.58283,1.50954 -0.64855,1.50954 -0.0657,0 -0.2613,-1.12229 -0.64855,-1.50954 C 32.12229,107.41939 31,107.22381 31,107.15809 c 0,-0.0657 1.12229,-0.2613 1.50954,-0.64855 C 32.89679,106.12229 33.09237,105 33.15809,105 c 0.0657,0 0.2613,1.12229 0.64855,1.50954 0.38725,0.38725 1.50954,0.58283 1.50954,0.64855 z" /><path
       id="path4-66-75"
       style="fill:#ffffff;stroke-width:0.0899202"
       d="m 139.31618,103.15809 c 0,0.0657 -1.12229,0.2613 -1.50954,0.64855 -0.38725,0.38725 -0.58283,1.50954 -0.64855,1.50954 -0.0657,0 -0.2613,-1.12229 -0.64855,-1.50954 C 136.12229,103.41939 135,103.22381 135,103.15809 c 0,-0.0657 1.12229,-0.2613 1.50954,-0.64855 0.38725,-0.38725 0.58283,-1.50954 0.64855,-1.50954 0.0657,0 0.2613,1.12229 0.64855,1.50954 0.38725,0.38725 1.50954,0.58283 1.50954,0.64855 z" /><path
       id="path4-66-31"
       style="fill:#ffffff;stroke-width:0.0899202"
       d="m 37.31618,41.15809 c 0,0.0657 -1.12229,0.2613 -1.50954,0.64855 -0.38725,0.38725 -0.58283,1.50954 -0.64855,1.50954 -0.0657,0 -0.2613,-1.12229 -0.64855,-1.50954 C 34.12229,41.41939 33,41.22381 33,41.15809 c 0,-0.0657 1.12229,-0.2613 1.50954,-0.64855 C 34.89679,40.12229 35.09237,39 35.15809,39 c 0.0657,0 0.2613,1.12229 0.64855,1.50954 0.38725,0.38725 1.50954,0.58283 1.50954,0.64855 z" /><path
       id="path4-66-43"
       style="fill:#ffffff;stroke-width:0.0899202"
       d="m 124.31618,26.15809 c 0,0.0657 -1.12229,0.2613 -1.50954,0.64855 -0.38725,0.38725 -0.58283,1.50954 -0.64855,1.50954 -0.0657,0 -0.2613,-1.12229 -0.64855,-1.50954 C 121.12229,26.41939 120,26.22381 120,26.15809 c 0,-0.0657 1.12229,-0.2613 1.50954,-0.64855 C 121.89679,25.12229 122.09237,24 122.15809,24 c 0.0657,0 0.2613,1.12229 0.64855,1.50954 0.38725,0.38725 1.50954,0.58283 1.50954,0.64855 z" /><path
       id="path4-66-60"
       style="fill:#ffffff;stroke-width:0.0899202"
       d="m 385.31618,63.15809 c 0,0.0657 -1.12229,0.2613 -1.50954,0.64855 -0.38725,0.38725 -0.58283,1.50954 -0.64855,1.50954 -0.0657,0 -0.2613,-1.12229 -0.64855,-1.50954 C 382.12229,63.41939 381,63.22381 381,63.15809 c 0,-0.0657 1.12229,-0.2613 1.50954,-0.64855 C 382.89679,62.12229 383.09237,61 383.15809,61 c 0.0657,0 0.2613,1.12229 0.64855,1.50954 0.38725,0.38725 1.50954,0.58283 1.50954,0.64855 z" /><path
       id="path4-66-89"
       style="fill:#ffffff;stroke-width:0.0899202"
       d="m 267.31618,59.15809 c 0,0.0657 -1.12229,0.2613 -1.50954,0.64855 -0.38725,0.38725 -0.58283,1.50954 -0.64855,1.50954 -0.0657,0 -0.2613,-1.12229 -0.64855,-1.50954 C 264.12229,59.41939 263,59.22381 263,59.15809 c 0,-0.0657 1.12229,-0.2613 1.50954,-0.64855 C 264.89679,58.12229 265.09237,57 265.15809,57 c 0.0657,0 0.2613,1.12229 0.64855,1.50954 0.38725,0.38725 1.50954,0.58283 1.50954,0.64855 z" /><path
       id="path4-66-430"
       style="fill:#ffffff;stroke-width:0.0899202"
       d="m 337.31618,137.15809 c 0,0.0657 -1.12229,0.2613 -1.50954,0.64855 -0.38725,0.38725 -0.58283,1.50954 -0.64855,1.50954 -0.0657,0 -0.2613,-1.12229 -0.64855,-1.50954 C 334.12229,137.41939 333,137.22381 333,137.15809 c 0,-0.0657 1.12229,-0.2613 1.50954,-0.64855 0.38725,-0.38725 0.58283,-1.50954 0.64855,-1.50954 0.0657,0 0.2613,1.12229 0.64855,1.50954 0.38725,0.38725 1.50954,0.58283 1.50954,0.64855 z" /><path
       id="path4-66-25"
       style="fill:#ffffff;stroke-width:0.0899202"
       d="m 422.31618,218.15809 c 0,0.0657 -1.12229,0.2613 -1.50954,0.64855 -0.38725,0.38725 -0.58283,1.50954 -0.64855,1.50954 -0.0657,0 -0.2613,-1.12229 -0.64855,-1.50954 C 419.12229,218.41939 418,218.22381 418,218.15809 c 0,-0.0657 1.12229,-0.2613 1.50954,-0.64855 0.38725,-0.38725 0.58283,-1.50954 0.64855,-1.50954 0.0657,0 0.2613,1.12229 0.64855,1.50954 0.38725,0.38725 1.50954,0.58283 1.50954,0.64855 z" /><path
       id="path4-66-94"
       style="fill:#ffffff;stroke-width:0.0899202"
       d="m 340.31618,225.15809 c 0,0.0657 -1.12229,0.2613 -1.50954,0.64855 -0.38725,0.38725 -0.58283,1.50954 -0.64855,1.50954 -0.0657,0 -0.2613,-1.12229 -0.64855,-1.50954 C 337.12229,225.41939 336,225.22381 336,225.15809 c 0,-0.0657 1.12229,-0.2613 1.50954,-0.64855 0.38725,-0.38725 0.58283,-1.50954 0.64855,-1.50954 0.0657,0 0.2613,1.12229 0.64855,1.50954 0.38725,0.38725 1.50954,0.58283 1.50954,0.64855 z" /><path
       id="path4-66-24"
       style="fill:#ffffff;stroke-width:0.0899202"
       d="m 416.31618,296.15809 c 0,0.0657 -1.12229,0.2613 -1.50954,0.64855 -0.38725,0.38725 -0.58283,1.50954 -0.64855,1.50954 -0.0657,0 -0.2613,-1.12229 -0.64855,-1.50954 C 413.12229,296.41939 412,296.22381 412,296.15809 c 0,-0.0657 1.12229,-0.2613 1.50954,-0.64855 0.38725,-0.38725 0.58283,-1.50954 0.64855,-1.50954 0.0657,0 0.2613,1.12229 0.64855,1.50954 0.38725,0.38725 1.50954,0.58283 1.50954,0.64855 z" /><path
       id="path4-66-48"
       style="fill:#ffffff;stroke-width:0.0899202"
       d="m 450.31618,352.15809 c 0,0.0657 -1.12229,0.2613 -1.50954,0.64855 -0.38725,0.38725 -0.58283,1.50954 -0.64855,1.50954 -0.0657,0 -0.2613,-1.12229 -0.64855,-1.50954 C 447.12229,352.41939 446,352.22381 446,352.15809 c 0,-0.0657 1.12229,-0.2613 1.50954,-0.64855 0.38725,-0.38725 0.58283,-1.50954 0.64855,-1.50954 0.0657,0 0.2613,1.12229 0.64855,1.50954 0.38725,0.38725 1.50954,0.58283 1.50954,0.64855 z" /><path
       id="path4-66-93"
       style="fill:#ffffff;stroke-width:0.0899202"
       d="m 460.31618,131.15809 c 0,0.0657 -1.12229,0.2613 -1.50954,0.64855 -0.38725,0.38725 -0.58283,1.50954 -0.64855,1.50954 -0.0657,0 -0.2613,-1.12229 -0.64855,-1.50954 C 457.12229,131.41939 456,131.22381 456,131.15809 c 0,-0.0657 1.12229,-0.2613 1.50954,-0.64855 0.38725,-0.38725 0.58283,-1.50954 0.64855,-1.50954 0.0657,0 0.2613,1.12229 0.64855,1.50954 0.38725,0.38725 1.50954,0.58283 1.50954,0.64855 z" /><path
       id="path4-66-21"
       style="fill:#ffffff;stroke-width:0.0899202"
       d="m 479.31618,227.15809 c 0,0.0657 -1.12229,0.2613 -1.50954,0.64855 -0.38725,0.38725 -0.58283,1.50954 -0.64855,1.50954 -0.0657,0 -0.2613,-1.12229 -0.64855,-1.50954 C 476.12229,227.41939 475,227.22381 475,227.15809 c 0,-0.0657 1.12229,-0.2613 1.50954,-0.64855 0.38725,-0.38725 0.58283,-1.50954 0.64855,-1.50954 0.0657,0 0.2613,1.12229 0.64855,1.50954 0.38725,0.38725 1.50954,0.58283 1.50954,0.64855 z" /></g></svg>
