<?xml version="1.0" encoding="UTF-8" standalone="no"?>
<!-- Created with Inkscape (http://www.inkscape.org/) -->

<svg
   width="512"
   height="512"
   viewBox="0 0 512 512"
   version="1.1"
   id="svg1"
   xml:space="preserve"
   inkscape:export-filename="logobase.svg"
   inkscape:export-xdpi="96"
   inkscape:export-ydpi="96"
   inkscape:version="1.3.2 (091e20ef0f, 2023-11-25, custom)"
   sodipodi:docname="logo.svg"
   xmlns:inkscape="http://www.inkscape.org/namespaces/inkscape"
   xmlns:sodipodi="http://sodipodi.sourceforge.net/DTD/sodipodi-0.dtd"
   xmlns:xlink="http://www.w3.org/1999/xlink"
   xmlns="http://www.w3.org/2000/svg"
   xmlns:svg="http://www.w3.org/2000/svg"><sodipodi:namedview
     id="namedview1"
     pagecolor="#505050"
     bordercolor="#ffffff"
     borderopacity="1"
     inkscape:showpageshadow="0"
     inkscape:pageopacity="0"
     inkscape:pagecheckerboard="1"
     inkscape:deskcolor="#505050"
     inkscape:document-units="px"
     inkscape:zoom="1.260915"
     inkscape:cx="281.14504"
     inkscape:cy="323.17801"
     inkscape:window-width="1916"
     inkscape:window-height="1046"
     inkscape:window-x="0"
     inkscape:window-y="30"
     inkscape:window-maximized="1"
     inkscape:current-layer="layer3" /><defs
     id="defs1"><linearGradient
       id="swatch1"
       inkscape:swatch="solid"><stop
         style="stop-color:#000000;stop-opacity:1;"
         offset="0"
         id="stop1" /></linearGradient><linearGradient
       id="linearGradient157"
       inkscape:collect="always"><stop
         style="stop-color:#e90000;stop-opacity:1;"
         offset="0"
         id="stop157" /><stop
         style="stop-color:#008ee9;stop-opacity:1;"
         offset="1"
         id="stop158" /></linearGradient><linearGradient
       id="swatch11"
       inkscape:swatch="solid"><stop
         style="stop-color:#ff0000;stop-opacity:1;"
         offset="0"
         id="stop11" /></linearGradient><filter
       inkscape:collect="always"
       style="color-interpolation-filters:sRGB"
       id="filter88"
       x="-0.82754402"
       y="-0.82754402"
       width="2.655088"
       height="2.655088"><feGaussianBlur
         inkscape:collect="always"
         stdDeviation="1.4882621"
         id="feGaussianBlur88" /></filter><filter
       inkscape:collect="always"
       style="color-interpolation-filters:sRGB"
       id="filter89"
       x="-0.82754402"
       y="-0.82754402"
       width="2.655088"
       height="2.655088"><feGaussianBlur
         inkscape:collect="always"
         stdDeviation="1.4882621"
         id="feGaussianBlur89" /></filter><filter
       inkscape:collect="always"
       style="color-interpolation-filters:sRGB"
       id="filter90"
       x="-0.82754402"
       y="-0.82754402"
       width="2.655088"
       height="2.655088"><feGaussianBlur
         inkscape:collect="always"
         stdDeviation="1.4882621"
         id="feGaussianBlur90" /></filter><filter
       inkscape:collect="always"
       style="color-interpolation-filters:sRGB"
       id="filter91"
       x="-0.82754402"
       y="-0.82754402"
       width="2.655088"
       height="2.655088"><feGaussianBlur
         inkscape:collect="always"
         stdDeviation="1.4882621"
         id="feGaussianBlur91" /></filter><filter
       inkscape:collect="always"
       style="color-interpolation-filters:sRGB"
       id="filter92"
       x="-0.82754402"
       y="-0.82754402"
       width="2.655088"
       height="2.655088"><feGaussianBlur
         inkscape:collect="always"
         stdDeviation="1.4882621"
         id="feGaussianBlur92" /></filter><filter
       inkscape:collect="always"
       style="color-interpolation-filters:sRGB"
       id="filter93"
       x="-0.82754402"
       y="-0.82754402"
       width="2.655088"
       height="2.655088"><feGaussianBlur
         inkscape:collect="always"
         stdDeviation="1.4882621"
         id="feGaussianBlur93" /></filter><filter
       inkscape:collect="always"
       style="color-interpolation-filters:sRGB"
       id="filter94"
       x="-0.82754402"
       y="-0.82754402"
       width="2.655088"
       height="2.655088"><feGaussianBlur
         inkscape:collect="always"
         stdDeviation="1.4882621"
         id="feGaussianBlur94" /></filter><filter
       inkscape:collect="always"
       style="color-interpolation-filters:sRGB"
       id="filter95"
       x="-0.82754402"
       y="-0.82754402"
       width="2.655088"
       height="2.655088"><feGaussianBlur
         inkscape:collect="always"
         stdDeviation="1.4882621"
         id="feGaussianBlur95" /></filter><filter
       inkscape:collect="always"
       style="color-interpolation-filters:sRGB"
       id="filter96"
       x="-0.82754402"
       y="-0.82754402"
       width="2.655088"
       height="2.655088"><feGaussianBlur
         inkscape:collect="always"
         stdDeviation="1.4882621"
         id="feGaussianBlur96" /></filter><filter
       inkscape:collect="always"
       style="color-interpolation-filters:sRGB"
       id="filter97"
       x="-0.82754402"
       y="-0.82754402"
       width="2.655088"
       height="2.655088"><feGaussianBlur
         inkscape:collect="always"
         stdDeviation="1.4882621"
         id="feGaussianBlur97" /></filter><filter
       inkscape:collect="always"
       style="color-interpolation-filters:sRGB"
       id="filter98"
       x="-0.82754402"
       y="-0.82754402"
       width="2.655088"
       height="2.655088"><feGaussianBlur
         inkscape:collect="always"
         stdDeviation="1.4882621"
         id="feGaussianBlur98" /></filter><filter
       inkscape:collect="always"
       style="color-interpolation-filters:sRGB"
       id="filter99"
       x="-0.82754402"
       y="-0.82754402"
       width="2.655088"
       height="2.655088"><feGaussianBlur
         inkscape:collect="always"
         stdDeviation="1.4882621"
         id="feGaussianBlur99" /></filter><filter
       inkscape:collect="always"
       style="color-interpolation-filters:sRGB"
       id="filter100"
       x="-0.82754402"
       y="-0.82754402"
       width="2.655088"
       height="2.655088"><feGaussianBlur
         inkscape:collect="always"
         stdDeviation="1.4882621"
         id="feGaussianBlur100" /></filter><filter
       inkscape:collect="always"
       style="color-interpolation-filters:sRGB"
       id="filter101"
       x="-0.82754402"
       y="-0.82754402"
       width="2.655088"
       height="2.655088"><feGaussianBlur
         inkscape:collect="always"
         stdDeviation="1.4882621"
         id="feGaussianBlur101" /></filter><filter
       inkscape:collect="always"
       style="color-interpolation-filters:sRGB"
       id="filter102"
       x="-0.82754402"
       y="-0.82754402"
       width="2.655088"
       height="2.655088"><feGaussianBlur
         inkscape:collect="always"
         stdDeviation="1.4882621"
         id="feGaussianBlur102" /></filter><filter
       inkscape:collect="always"
       style="color-interpolation-filters:sRGB"
       id="filter103"
       x="-0.82754402"
       y="-0.82754402"
       width="2.655088"
       height="2.655088"><feGaussianBlur
         inkscape:collect="always"
         stdDeviation="1.4882621"
         id="feGaussianBlur103" /></filter><filter
       inkscape:collect="always"
       style="color-interpolation-filters:sRGB"
       id="filter104"
       x="-0.82754402"
       y="-0.82754402"
       width="2.655088"
       height="2.655088"><feGaussianBlur
         inkscape:collect="always"
         stdDeviation="1.4882621"
         id="feGaussianBlur104" /></filter><filter
       inkscape:collect="always"
       style="color-interpolation-filters:sRGB"
       id="filter105"
       x="-0.82754402"
       y="-0.82754402"
       width="2.655088"
       height="2.655088"><feGaussianBlur
         inkscape:collect="always"
         stdDeviation="1.4882621"
         id="feGaussianBlur105" /></filter><filter
       inkscape:collect="always"
       style="color-interpolation-filters:sRGB"
       id="filter106"
       x="-0.82754402"
       y="-0.82754402"
       width="2.655088"
       height="2.655088"><feGaussianBlur
         inkscape:collect="always"
         stdDeviation="1.4882621"
         id="feGaussianBlur106" /></filter><filter
       inkscape:collect="always"
       style="color-interpolation-filters:sRGB"
       id="filter107"
       x="-0.82754402"
       y="-0.82754402"
       width="2.655088"
       height="2.655088"><feGaussianBlur
         inkscape:collect="always"
         stdDeviation="1.4882621"
         id="feGaussianBlur107" /></filter><filter
       inkscape:collect="always"
       style="color-interpolation-filters:sRGB"
       id="filter108"
       x="-0.82754402"
       y="-0.82754402"
       width="2.655088"
       height="2.655088"><feGaussianBlur
         inkscape:collect="always"
         stdDeviation="1.4882621"
         id="feGaussianBlur108" /></filter><filter
       inkscape:collect="always"
       style="color-interpolation-filters:sRGB"
       id="filter109"
       x="-0.82754402"
       y="-0.82754402"
       width="2.655088"
       height="2.655088"><feGaussianBlur
         inkscape:collect="always"
         stdDeviation="1.4882621"
         id="feGaussianBlur109" /></filter><filter
       inkscape:collect="always"
       style="color-interpolation-filters:sRGB"
       id="filter110"
       x="-0.82754402"
       y="-0.82754402"
       width="2.655088"
       height="2.655088"><feGaussianBlur
         inkscape:collect="always"
         stdDeviation="1.4882621"
         id="feGaussianBlur110" /></filter><filter
       inkscape:collect="always"
       style="color-interpolation-filters:sRGB"
       id="filter111"
       x="-0.82754402"
       y="-0.82754402"
       width="2.655088"
       height="2.655088"><feGaussianBlur
         inkscape:collect="always"
         stdDeviation="1.4882621"
         id="feGaussianBlur111" /></filter><filter
       inkscape:collect="always"
       style="color-interpolation-filters:sRGB"
       id="filter112"
       x="-0.82754402"
       y="-0.82754402"
       width="2.655088"
       height="2.655088"><feGaussianBlur
         inkscape:collect="always"
         stdDeviation="1.4882621"
         id="feGaussianBlur112" /></filter><filter
       inkscape:collect="always"
       style="color-interpolation-filters:sRGB"
       id="filter113"
       x="-0.82754402"
       y="-0.82754402"
       width="2.655088"
       height="2.655088"><feGaussianBlur
         inkscape:collect="always"
         stdDeviation="1.4882621"
         id="feGaussianBlur113" /></filter><filter
       inkscape:collect="always"
       style="color-interpolation-filters:sRGB"
       id="filter114"
       x="-0.82754402"
       y="-0.82754402"
       width="2.655088"
       height="2.655088"><feGaussianBlur
         inkscape:collect="always"
         stdDeviation="1.4882621"
         id="feGaussianBlur114" /></filter><filter
       inkscape:collect="always"
       style="color-interpolation-filters:sRGB"
       id="filter115"
       x="-0.82754402"
       y="-0.82754402"
       width="2.655088"
       height="2.655088"><feGaussianBlur
         inkscape:collect="always"
         stdDeviation="1.4882621"
         id="feGaussianBlur115" /></filter><filter
       inkscape:collect="always"
       style="color-interpolation-filters:sRGB"
       id="filter116"
       x="-0.82754402"
       y="-0.82754402"
       width="2.655088"
       height="2.655088"><feGaussianBlur
         inkscape:collect="always"
         stdDeviation="1.4882621"
         id="feGaussianBlur116" /></filter><filter
       inkscape:collect="always"
       style="color-interpolation-filters:sRGB"
       id="filter117"
       x="-0.82754402"
       y="-0.82754402"
       width="2.655088"
       height="2.655088"><feGaussianBlur
         inkscape:collect="always"
         stdDeviation="1.4882621"
         id="feGaussianBlur117" /></filter><filter
       inkscape:collect="always"
       style="color-interpolation-filters:sRGB"
       id="filter118"
       x="-0.82754402"
       y="-0.82754402"
       width="2.655088"
       height="2.655088"><feGaussianBlur
         inkscape:collect="always"
         stdDeviation="1.4882621"
         id="feGaussianBlur118" /></filter><filter
       inkscape:collect="always"
       style="color-interpolation-filters:sRGB"
       id="filter119"
       x="-0.82754402"
       y="-0.82754402"
       width="2.655088"
       height="2.655088"><feGaussianBlur
         inkscape:collect="always"
         stdDeviation="1.4882621"
         id="feGaussianBlur119" /></filter><filter
       inkscape:collect="always"
       style="color-interpolation-filters:sRGB"
       id="filter120"
       x="-0.82754402"
       y="-0.82754402"
       width="2.655088"
       height="2.655088"><feGaussianBlur
         inkscape:collect="always"
         stdDeviation="1.4882621"
         id="feGaussianBlur120" /></filter><filter
       inkscape:collect="always"
       style="color-interpolation-filters:sRGB"
       id="filter121"
       x="-0.37146498"
       y="-0.3714651"
       width="1.74293"
       height="1.7429302"><feGaussianBlur
         inkscape:collect="always"
         stdDeviation="1.4882621"
         id="feGaussianBlur121" /></filter><filter
       inkscape:collect="always"
       style="color-interpolation-filters:sRGB"
       id="filter122"
       x="-0.37146498"
       y="-0.37146498"
       width="1.74293"
       height="1.74293"><feGaussianBlur
         inkscape:collect="always"
         stdDeviation="1.4882621"
         id="feGaussianBlur122" /></filter><filter
       inkscape:collect="always"
       style="color-interpolation-filters:sRGB"
       id="filter123"
       x="-0.37146498"
       y="-0.37146498"
       width="1.74293"
       height="1.74293"><feGaussianBlur
         inkscape:collect="always"
         stdDeviation="1.4882621"
         id="feGaussianBlur123" /></filter><filter
       inkscape:collect="always"
       style="color-interpolation-filters:sRGB"
       id="filter124"
       x="-0.37146498"
       y="-0.37146498"
       width="1.74293"
       height="1.74293"><feGaussianBlur
         inkscape:collect="always"
         stdDeviation="1.4882621"
         id="feGaussianBlur124" /></filter><filter
       inkscape:collect="always"
       style="color-interpolation-filters:sRGB"
       id="filter125"
       x="-0.37146498"
       y="-0.37146498"
       width="1.74293"
       height="1.74293"><feGaussianBlur
         inkscape:collect="always"
         stdDeviation="1.4882621"
         id="feGaussianBlur125" /></filter><filter
       inkscape:collect="always"
       style="color-interpolation-filters:sRGB"
       id="filter126"
       x="-0.37146498"
       y="-0.37146498"
       width="1.74293"
       height="1.74293"><feGaussianBlur
         inkscape:collect="always"
         stdDeviation="1.4882621"
         id="feGaussianBlur126" /></filter><filter
       inkscape:collect="always"
       style="color-interpolation-filters:sRGB"
       id="filter127"
       x="-0.37146498"
       y="-0.37146498"
       width="1.74293"
       height="1.74293"><feGaussianBlur
         inkscape:collect="always"
         stdDeviation="1.4882621"
         id="feGaussianBlur127" /></filter><filter
       inkscape:collect="always"
       style="color-interpolation-filters:sRGB"
       id="filter128"
       x="-0.37146498"
       y="-0.37146498"
       width="1.74293"
       height="1.74293"><feGaussianBlur
         inkscape:collect="always"
         stdDeviation="1.4882621"
         id="feGaussianBlur128" /></filter><filter
       inkscape:collect="always"
       style="color-interpolation-filters:sRGB"
       id="filter129"
       x="-0.37146498"
       y="-0.37146498"
       width="1.74293"
       height="1.74293"><feGaussianBlur
         inkscape:collect="always"
         stdDeviation="1.4882621"
         id="feGaussianBlur129" /></filter><filter
       inkscape:collect="always"
       style="color-interpolation-filters:sRGB"
       id="filter130"
       x="-0.37146498"
       y="-0.37146498"
       width="1.74293"
       height="1.74293"><feGaussianBlur
         inkscape:collect="always"
         stdDeviation="1.4882621"
         id="feGaussianBlur130" /></filter><filter
       inkscape:collect="always"
       style="color-interpolation-filters:sRGB"
       id="filter131"
       x="-0.37146498"
       y="-0.37146498"
       width="1.74293"
       height="1.74293"><feGaussianBlur
         inkscape:collect="always"
         stdDeviation="1.4882621"
         id="feGaussianBlur131" /></filter><filter
       inkscape:collect="always"
       style="color-interpolation-filters:sRGB"
       id="filter132"
       x="-0.37146498"
       y="-0.37146498"
       width="1.74293"
       height="1.74293"><feGaussianBlur
         inkscape:collect="always"
         stdDeviation="1.4882621"
         id="feGaussianBlur132" /></filter><filter
       inkscape:collect="always"
       style="color-interpolation-filters:sRGB"
       id="filter133"
       x="-0.37146498"
       y="-0.37146498"
       width="1.74293"
       height="1.74293"><feGaussianBlur
         inkscape:collect="always"
         stdDeviation="1.4882621"
         id="feGaussianBlur133" /></filter><filter
       inkscape:collect="always"
       style="color-interpolation-filters:sRGB"
       id="filter134"
       x="-0.37146498"
       y="-0.37146498"
       width="1.74293"
       height="1.74293"><feGaussianBlur
         inkscape:collect="always"
         stdDeviation="1.4882621"
         id="feGaussianBlur134" /></filter><filter
       inkscape:collect="always"
       style="color-interpolation-filters:sRGB"
       id="filter135"
       x="-0.37146513"
       y="-0.37146498"
       width="1.7429303"
       height="1.74293"><feGaussianBlur
         inkscape:collect="always"
         stdDeviation="1.4882621"
         id="feGaussianBlur135" /></filter><filter
       inkscape:collect="always"
       style="color-interpolation-filters:sRGB"
       id="filter136"
       x="-0.37146498"
       y="-0.37146498"
       width="1.74293"
       height="1.74293"><feGaussianBlur
         inkscape:collect="always"
         stdDeviation="1.4882621"
         id="feGaussianBlur136" /></filter><filter
       inkscape:collect="always"
       style="color-interpolation-filters:sRGB"
       id="filter137"
       x="-0.37146498"
       y="-0.37146498"
       width="1.74293"
       height="1.74293"><feGaussianBlur
         inkscape:collect="always"
         stdDeviation="1.4882621"
         id="feGaussianBlur137" /></filter><filter
       inkscape:collect="always"
       style="color-interpolation-filters:sRGB"
       id="filter138"
       x="-0.37146498"
       y="-0.37146498"
       width="1.74293"
       height="1.74293"><feGaussianBlur
         inkscape:collect="always"
         stdDeviation="1.4882621"
         id="feGaussianBlur138" /></filter><filter
       inkscape:collect="always"
       style="color-interpolation-filters:sRGB"
       id="filter139"
       x="-0.37146498"
       y="-0.3714651"
       width="1.74293"
       height="1.7429302"><feGaussianBlur
         inkscape:collect="always"
         stdDeviation="1.4882621"
         id="feGaussianBlur139" /></filter><filter
       inkscape:collect="always"
       style="color-interpolation-filters:sRGB"
       id="filter140"
       x="-0.37146498"
       y="-0.37146498"
       width="1.74293"
       height="1.74293"><feGaussianBlur
         inkscape:collect="always"
         stdDeviation="1.4882621"
         id="feGaussianBlur140" /></filter><filter
       inkscape:collect="always"
       style="color-interpolation-filters:sRGB"
       id="filter141"
       x="-0.37146513"
       y="-0.37146498"
       width="1.7429303"
       height="1.74293"><feGaussianBlur
         inkscape:collect="always"
         stdDeviation="1.4882621"
         id="feGaussianBlur141" /></filter><filter
       inkscape:collect="always"
       style="color-interpolation-filters:sRGB"
       id="filter142"
       x="-0.37146498"
       y="-0.37146498"
       width="1.74293"
       height="1.74293"><feGaussianBlur
         inkscape:collect="always"
         stdDeviation="1.4882621"
         id="feGaussianBlur142" /></filter><filter
       inkscape:collect="always"
       style="color-interpolation-filters:sRGB"
       id="filter143"
       x="-0.37146498"
       y="-0.37146498"
       width="1.74293"
       height="1.74293"><feGaussianBlur
         inkscape:collect="always"
         stdDeviation="1.4882621"
         id="feGaussianBlur143" /></filter><filter
       inkscape:collect="always"
       style="color-interpolation-filters:sRGB"
       id="filter144"
       x="-0.37146498"
       y="-0.37146498"
       width="1.74293"
       height="1.74293"><feGaussianBlur
         inkscape:collect="always"
         stdDeviation="1.4882621"
         id="feGaussianBlur144" /></filter><filter
       inkscape:collect="always"
       style="color-interpolation-filters:sRGB"
       id="filter145"
       x="-0.37146513"
       y="-0.3714651"
       width="1.7429303"
       height="1.7429302"><feGaussianBlur
         inkscape:collect="always"
         stdDeviation="1.4882621"
         id="feGaussianBlur145" /></filter><linearGradient
       inkscape:collect="always"
       xlink:href="#linearGradient157"
       id="linearGradient158"
       x1="114.20066"
       y1="217.04391"
       x2="442.2346"
       y2="217.04391"
       gradientUnits="userSpaceOnUse" /><filter
       inkscape:collect="always"
       style="color-interpolation-filters:sRGB"
       id="filter163"
       x="-0.056837499"
       y="-0.05834518"
       width="1.113675"
       height="1.1166904"><feGaussianBlur
         inkscape:collect="always"
         stdDeviation="6.6085173"
         id="feGaussianBlur163" /></filter><filter
       inkscape:collect="always"
       style="color-interpolation-filters:sRGB"
       id="filter169"
       x="-0.023325479"
       y="-0.023894654"
       width="1.046651"
       height="1.0477893"><feGaussianBlur
         inkscape:collect="always"
         stdDeviation="3.2869335"
         id="feGaussianBlur169" /></filter><linearGradient
       inkscape:collect="always"
       xlink:href="#linearGradient157"
       id="linearGradient193"
       gradientUnits="userSpaceOnUse"
       x1="114.20066"
       y1="217.04391"
       x2="442.2346"
       y2="217.04391" /><linearGradient
       inkscape:collect="always"
       xlink:href="#linearGradient157"
       id="linearGradient194"
       gradientUnits="userSpaceOnUse"
       x1="114.20066"
       y1="217.04391"
       x2="442.2346"
       y2="217.04391" /><linearGradient
       inkscape:collect="always"
       xlink:href="#linearGradient157"
       id="linearGradient195"
       gradientUnits="userSpaceOnUse"
       x1="114.20066"
       y1="217.04391"
       x2="442.2346"
       y2="217.04391" /><linearGradient
       inkscape:collect="always"
       xlink:href="#linearGradient157"
       id="linearGradient196"
       gradientUnits="userSpaceOnUse"
       x1="114.20066"
       y1="217.04391"
       x2="442.2346"
       y2="217.04391" /><linearGradient
       inkscape:collect="always"
       xlink:href="#linearGradient157"
       id="linearGradient197"
       gradientUnits="userSpaceOnUse"
       x1="114.20066"
       y1="217.04391"
       x2="442.2346"
       y2="217.04391" /><linearGradient
       inkscape:collect="always"
       xlink:href="#linearGradient157"
       id="linearGradient198"
       gradientUnits="userSpaceOnUse"
       x1="114.20066"
       y1="217.04391"
       x2="442.2346"
       y2="217.04391" /><linearGradient
       inkscape:collect="always"
       xlink:href="#linearGradient157"
       id="linearGradient199"
       gradientUnits="userSpaceOnUse"
       x1="114.20066"
       y1="217.04391"
       x2="442.2346"
       y2="217.04391" /><linearGradient
       inkscape:collect="always"
       xlink:href="#linearGradient157"
       id="linearGradient200"
       gradientUnits="userSpaceOnUse"
       x1="114.20066"
       y1="217.04391"
       x2="442.2346"
       y2="217.04391" /><linearGradient
       inkscape:collect="always"
       xlink:href="#linearGradient157"
       id="linearGradient201"
       gradientUnits="userSpaceOnUse"
       x1="114.20066"
       y1="217.04391"
       x2="442.2346"
       y2="217.04391" /><linearGradient
       inkscape:collect="always"
       xlink:href="#linearGradient157"
       id="linearGradient202"
       gradientUnits="userSpaceOnUse"
       x1="114.20066"
       y1="217.04391"
       x2="442.2346"
       y2="217.04391" /><linearGradient
       inkscape:collect="always"
       xlink:href="#linearGradient157"
       id="linearGradient203"
       gradientUnits="userSpaceOnUse"
       x1="114.20066"
       y1="217.04391"
       x2="442.2346"
       y2="217.04391" /></defs><g
     inkscape:label="Background"
     inkscape:groupmode="layer"
     id="layer1"
     style="display:inline"><rect
       style="fill:#050511;fill-opacity:1"
       id="rect1"
       width="512"
       height="512"
       x="0"
       y="0"
       sodipodi:insensitive="true" /></g><g
     inkscape:groupmode="layer"
     id="layer2"
     inkscape:label="cosmos"
     style="display:inline"><path
       id="path4"
       style="fill:#ffffff;stroke-width:0.200323"
       d="m 90.58158,85.590849 c 0,0.146407 -2.500219,0.58212 -3.362928,1.44483 -0.86271,0.86271 -1.298423,3.362929 -1.444829,3.362929 -0.146408,0 -0.58212,-2.500219 -1.44483,-3.362929 -0.862709,-0.86271 -3.362929,-1.298423 -3.362929,-1.44483 0,-0.146406 2.50022,-0.582119 3.362929,-1.444829 0.86271,-0.862708 1.298422,-3.362929 1.44483,-3.362929 0.146406,0 0.582119,2.500221 1.444829,3.362929 0.862709,0.86271 3.362928,1.298423 3.362928,1.444829 z" /><path
       id="path4-2"
       style="fill:#ffffff;stroke-width:0.200323"
       d="m 174.61552,162.80776 c 0,0.1464 -2.50022,0.58212 -3.36293,1.44483 -0.86271,0.86271 -1.29843,3.36293 -1.44483,3.36293 -0.14641,0 -0.58212,-2.50022 -1.44483,-3.36293 C 167.50022,163.38988 165,162.95416 165,162.80776 c 0,-0.14641 2.50022,-0.58212 3.36293,-1.44483 0.86271,-0.86271 1.29842,-3.36293 1.44483,-3.36293 0.1464,0 0.58212,2.50022 1.44483,3.36293 0.86271,0.86271 3.36293,1.29842 3.36293,1.44483 z" /><path
       id="path4-7"
       style="fill:#ffffff;stroke-width:0.200323"
       d="m 343.61552,184.80776 c 0,0.1464 -2.50022,0.58212 -3.36293,1.44483 -0.86271,0.86271 -1.29842,3.36293 -1.44483,3.36293 -0.1464,0 -0.58212,-2.50022 -1.44483,-3.36293 C 336.50022,185.38988 334,184.95416 334,184.80776 c 0,-0.14641 2.50022,-0.58212 3.36293,-1.44483 0.86271,-0.86271 1.29843,-3.36293 1.44483,-3.36293 0.14641,0 0.58212,2.50022 1.44483,3.36293 0.86271,0.86271 3.36293,1.29842 3.36293,1.44483 z" /><path
       id="path4-6"
       style="fill:#ffffff;stroke-width:0.200323"
       d="m 178.61552,305.80776 c 0,0.14641 -2.50022,0.58212 -3.36293,1.44483 -0.86271,0.86271 -1.29843,3.36293 -1.44483,3.36293 -0.14641,0 -0.58212,-2.50022 -1.44483,-3.36293 C 171.50022,306.38988 169,305.95417 169,305.80776 c 0,-0.14641 2.50022,-0.58212 3.36293,-1.44483 0.86271,-0.86271 1.29842,-3.36293 1.44483,-3.36293 0.1464,0 0.58212,2.50022 1.44483,3.36293 0.86271,0.86271 3.36293,1.29842 3.36293,1.44483 z" /><path
       id="path4-61"
       style="fill:#ffffff;stroke-width:0.200323"
       d="m 55.615516,269.80776 c 0,0.14641 -2.500219,0.58212 -3.362928,1.44483 -0.86271,0.86271 -1.298423,3.36293 -1.444829,3.36293 -0.146408,0 -0.58212,-2.50022 -1.44483,-3.36293 C 48.50022,270.38988 46,269.95417 46,269.80776 c 0,-0.14641 2.50022,-0.58212 3.362929,-1.44483 0.86271,-0.86271 1.298422,-3.36293 1.44483,-3.36293 0.146406,0 0.582119,2.50022 1.444829,3.36293 0.862709,0.86271 3.362928,1.29842 3.362928,1.44483 z" /><path
       id="path4-20"
       style="fill:#ffffff;stroke-width:0.200323"
       d="m 110.61552,151.80776 c 0,0.1464 -2.50022,0.58212 -3.36293,1.44483 -0.86271,0.86271 -1.29842,3.36293 -1.44483,3.36293 -0.14641,0 -0.58212,-2.50022 -1.44483,-3.36293 C 103.50022,152.38988 101,151.95416 101,151.80776 c 0,-0.14641 2.50022,-0.58212 3.36293,-1.44483 0.86271,-0.86271 1.29842,-3.36293 1.44483,-3.36293 0.14641,0 0.58212,2.50022 1.44483,3.36293 0.86271,0.86271 3.36293,1.29842 3.36293,1.44483 z" /><path
       id="path4-5"
       style="fill:#ffffff;stroke-width:0.200323"
       d="m 332.61552,61.807758 c 0,0.146407 -2.50022,0.58212 -3.36293,1.44483 -0.86271,0.86271 -1.29842,3.362929 -1.44483,3.362929 -0.1464,0 -0.58212,-2.500219 -1.44483,-3.362929 C 325.50022,62.389878 323,61.954165 323,61.807758 c 0,-0.146406 2.50022,-0.582119 3.36293,-1.444829 C 327.22564,59.500221 327.66136,57 327.80776,57 c 0.14641,0 0.58212,2.500221 1.44483,3.362929 0.86271,0.86271 3.36293,1.298423 3.36293,1.444829 z" /><path
       id="path4-8"
       style="fill:#ffffff;stroke-width:0.200323"
       d="m 387.61552,274.80776 c 0,0.14641 -2.50022,0.58212 -3.36293,1.44483 -0.86271,0.86271 -1.29842,3.36293 -1.44483,3.36293 -0.14641,0 -0.58212,-2.50022 -1.44483,-3.36293 C 380.50022,275.38988 378,274.95417 378,274.80776 c 0,-0.14641 2.50022,-0.58212 3.36293,-1.44483 0.86271,-0.86271 1.29842,-3.36293 1.44483,-3.36293 0.14641,0 0.58212,2.50022 1.44483,3.36293 0.86271,0.86271 3.36293,1.29842 3.36293,1.44483 z" /><path
       id="path4-612"
       style="fill:#ffffff;stroke-width:0.200323"
       d="m 290.61552,330.80776 c 0,0.14641 -2.50022,0.58212 -3.36293,1.44483 -0.86271,0.86271 -1.29842,3.36293 -1.44483,3.36293 -0.1464,0 -0.58212,-2.50022 -1.44483,-3.36293 C 283.50022,331.38988 281,330.95417 281,330.80776 c 0,-0.14641 2.50022,-0.58212 3.36293,-1.44483 0.86271,-0.86271 1.29843,-3.36293 1.44483,-3.36293 0.14641,0 0.58212,2.50022 1.44483,3.36293 0.86271,0.86271 3.36293,1.29842 3.36293,1.44483 z" /><path
       id="path4-9"
       style="fill:#ffffff;stroke-width:0.200323"
       d="m 199.61552,417.80776 c 0,0.14641 -2.50022,0.58212 -3.36293,1.44483 -0.86271,0.86271 -1.29842,3.36293 -1.44483,3.36293 -0.1464,0 -0.58212,-2.50022 -1.44483,-3.36293 C 192.50022,418.38988 190,417.95417 190,417.80776 c 0,-0.14641 2.50022,-0.58212 3.36293,-1.44483 0.86271,-0.86271 1.29843,-3.36293 1.44483,-3.36293 0.14641,0 0.58212,2.50022 1.44483,3.36293 0.86271,0.86271 3.36293,1.29842 3.36293,1.44483 z" /><path
       id="path4-4"
       style="fill:#ffffff;stroke-width:0.200323"
       d="m 48.615516,438.80776 c 0,0.14641 -2.500219,0.58212 -3.362928,1.44483 -0.86271,0.86271 -1.298423,3.36293 -1.444829,3.36293 -0.146408,0 -0.58212,-2.50022 -1.44483,-3.36293 C 41.50022,439.38988 39,438.95417 39,438.80776 c 0,-0.14641 2.50022,-0.58212 3.362929,-1.44483 0.86271,-0.86271 1.298422,-3.36293 1.44483,-3.36293 0.146406,0 0.582119,2.50022 1.444829,3.36293 0.862709,0.86271 3.362928,1.29842 3.362928,1.44483 z" /><path
       id="path4-610"
       style="fill:#ffffff;stroke-width:0.200323"
       d="m 448.61552,460.80776 c 0,0.14641 -2.50022,0.58212 -3.36293,1.44483 -0.86271,0.86271 -1.29842,3.36293 -1.44483,3.36293 -0.14641,0 -0.58212,-2.50022 -1.44483,-3.36293 C 441.50022,461.38988 439,460.95417 439,460.80776 c 0,-0.14641 2.50022,-0.58212 3.36293,-1.44483 0.86271,-0.86271 1.29842,-3.36293 1.44483,-3.36293 0.14641,0 0.58212,2.50022 1.44483,3.36293 0.86271,0.86271 3.36293,1.29842 3.36293,1.44483 z" /><path
       id="path4-0"
       style="fill:#ffffff;stroke-width:0.200323"
       d="m 104.61552,349.80776 c 0,0.14641 -2.50022,0.58212 -3.36293,1.44483 -0.86271,0.86271 -1.298425,3.36293 -1.444831,3.36293 -0.146408,0 -0.58212,-2.50022 -1.44483,-3.36293 C 97.50022,350.38988 95,349.95417 95,349.80776 c 0,-0.14641 2.50022,-0.58212 3.362929,-1.44483 0.86271,-0.86271 1.298422,-3.36293 1.44483,-3.36293 0.146406,0 0.582121,2.50022 1.444831,3.36293 0.86271,0.86271 3.36293,1.29842 3.36293,1.44483 z" /><path
       id="path4-54"
       style="fill:#ffffff;stroke-width:0.200323"
       d="m 208.61552,469.80776 c 0,0.14641 -2.50022,0.58212 -3.36293,1.44483 -0.86271,0.86271 -1.29842,3.36293 -1.44483,3.36293 -0.1464,0 -0.58212,-2.50022 -1.44483,-3.36293 C 201.50022,470.38988 199,469.95417 199,469.80776 c 0,-0.14641 2.50022,-0.58212 3.36293,-1.44483 0.86271,-0.86271 1.29843,-3.36293 1.44483,-3.36293 0.14641,0 0.58212,2.50022 1.44483,3.36293 0.86271,0.86271 3.36293,1.29842 3.36293,1.44483 z" /><path
       id="path4-69"
       style="fill:#ffffff;stroke-width:0.200323"
       d="m 365.61552,410.80776 c 0,0.14641 -2.50022,0.58212 -3.36293,1.44483 -0.86271,0.86271 -1.29842,3.36293 -1.44483,3.36293 -0.14641,0 -0.58212,-2.50022 -1.44483,-3.36293 C 358.50022,411.38988 356,410.95417 356,410.80776 c 0,-0.14641 2.50022,-0.58212 3.36293,-1.44483 0.86271,-0.86271 1.29842,-3.36293 1.44483,-3.36293 0.14641,0 0.58212,2.50022 1.44483,3.36293 0.86271,0.86271 3.36293,1.29842 3.36293,1.44483 z" /><path
       id="path4-52"
       style="fill:#ffffff;stroke-width:0.200323"
       d="m 305.61552,282.80776 c 0,0.14641 -2.50022,0.58212 -3.36293,1.44483 -0.86271,0.86271 -1.29842,3.36293 -1.44483,3.36293 -0.1464,0 -0.58212,-2.50022 -1.44483,-3.36293 C 298.50022,283.38988 296,282.95417 296,282.80776 c 0,-0.14641 2.50022,-0.58212 3.36293,-1.44483 0.86271,-0.86271 1.29843,-3.36293 1.44483,-3.36293 0.14641,0 0.58212,2.50022 1.44483,3.36293 0.86271,0.86271 3.36293,1.29842 3.36293,1.44483 z" /><path
       id="path4-44"
       style="fill:#ffffff;stroke-width:0.200323"
       d="m 386.61552,119.80776 c 0,0.14641 -2.50022,0.58212 -3.36293,1.44483 -0.86271,0.86271 -1.29842,3.36293 -1.44483,3.36293 -0.14641,0 -0.58212,-2.50022 -1.44483,-3.36293 C 379.50022,120.38988 377,119.95417 377,119.80776 c 0,-0.14641 2.50022,-0.58212 3.36293,-1.44483 0.86271,-0.86271 1.29842,-3.36293 1.44483,-3.36293 0.14641,0 0.58212,2.50022 1.44483,3.36293 0.86271,0.86271 3.36293,1.29842 3.36293,1.44483 z" /><path
       id="path4-44-1"
       style="fill:#ffffff;stroke-width:0.200323"
       d="m 443.61552,101.80776 c 0,0.14641 -2.50022,0.58212 -3.36293,1.44483 -0.86271,0.86271 -1.29842,3.36293 -1.44483,3.36293 -0.14641,0 -0.58212,-2.50022 -1.44483,-3.36293 C 436.50022,102.38988 434,101.95417 434,101.80776 c 0,-0.14641 2.50022,-0.58212 3.36293,-1.44483 C 438.22564,99.50022 438.66135,97 438.80776,97 c 0.14641,0 0.58212,2.50022 1.44483,3.36293 0.86271,0.86271 3.36293,1.29842 3.36293,1.44483 z" /><path
       id="path4-44-0"
       style="fill:#ffffff;stroke-width:0.200323"
       d="m 441.61552,163.80776 c 0,0.14641 -2.50022,0.58212 -3.36293,1.44483 -0.86271,0.86271 -1.29842,3.36293 -1.44483,3.36293 -0.14641,0 -0.58212,-2.50022 -1.44483,-3.36293 C 434.50022,164.38988 432,163.95417 432,163.80776 c 0,-0.14641 2.50022,-0.58212 3.36293,-1.44483 0.86271,-0.86271 1.29842,-3.36293 1.44483,-3.36293 0.14641,0 0.58212,2.50022 1.44483,3.36293 0.86271,0.86271 3.36293,1.29842 3.36293,1.44483 z" /><path
       id="path4-44-2"
       style="fill:#ffffff;stroke-width:0.200323"
       d="m 465.61552,81.80776 c 0,0.14641 -2.50022,0.58212 -3.36293,1.44483 -0.86271,0.86271 -1.29842,3.36293 -1.44483,3.36293 -0.14641,0 -0.58212,-2.50022 -1.44483,-3.36293 C 458.50022,82.38988 456,81.95417 456,81.80776 c 0,-0.14641 2.50022,-0.58212 3.36293,-1.44483 C 460.22564,79.50022 460.66135,77 460.80776,77 c 0.14641,0 0.58212,2.50022 1.44483,3.36293 0.86271,0.86271 3.36293,1.29842 3.36293,1.44483 z" /><path
       id="path4-44-28"
       style="fill:#ffffff;stroke-width:0.200323"
       d="m 464.61552,25.80776 c 0,0.14641 -2.50022,0.58212 -3.36293,1.44483 -0.86271,0.86271 -1.29842,3.36293 -1.44483,3.36293 -0.14641,0 -0.58212,-2.50022 -1.44483,-3.36293 C 457.50022,26.38988 455,25.95417 455,25.80776 c 0,-0.14641 2.50022,-0.58212 3.36293,-1.44483 C 459.22564,23.50022 459.66135,21 459.80776,21 c 0.14641,0 0.58212,2.50022 1.44483,3.36293 0.86271,0.86271 3.36293,1.29842 3.36293,1.44483 z" /><path
       id="path4-44-4"
       style="fill:#ffffff;stroke-width:0.200323"
       d="m 314.61552,24.80776 c 0,0.14641 -2.50022,0.58212 -3.36293,1.44483 -0.86271,0.86271 -1.29842,3.36293 -1.44483,3.36293 -0.14641,0 -0.58212,-2.50022 -1.44483,-3.36293 C 307.50022,25.38988 305,24.95417 305,24.80776 c 0,-0.14641 2.50022,-0.58212 3.36293,-1.44483 C 309.22564,22.50022 309.66135,20 309.80776,20 c 0.14641,0 0.58212,2.50022 1.44483,3.36293 0.86271,0.86271 3.36293,1.29842 3.36293,1.44483 z" /><path
       id="path4-86"
       style="fill:#ffffff;stroke-width:0.200323"
       d="m 264.61552,127.80776 c 0,0.14641 -2.50022,0.58212 -3.36293,1.44483 -0.86271,0.86271 -1.29842,3.36293 -1.44483,3.36293 -0.1464,0 -0.58212,-2.50022 -1.44483,-3.36293 C 257.50022,128.38988 255,127.95417 255,127.80776 c 0,-0.14641 2.50022,-0.58212 3.36293,-1.44483 0.86271,-0.86271 1.29843,-3.36293 1.44483,-3.36293 0.14641,0 0.58212,2.50022 1.44483,3.36293 0.86271,0.86271 3.36293,1.29842 3.36293,1.44483 z" /><path
       id="path4-3"
       style="fill:#ffffff;stroke-width:0.200323"
       d="m 251.61552,212.80776 c 0,0.14641 -2.50022,0.58212 -3.36293,1.44483 -0.86271,0.86271 -1.29842,3.36293 -1.44483,3.36293 -0.1464,0 -0.58212,-2.50022 -1.44483,-3.36293 C 244.50022,213.38988 242,212.95417 242,212.80776 c 0,-0.14641 2.50022,-0.58212 3.36293,-1.44483 0.86271,-0.86271 1.29843,-3.36293 1.44483,-3.36293 0.14641,0 0.58212,2.50022 1.44483,3.36293 0.86271,0.86271 3.36293,1.29842 3.36293,1.44483 z" /><path
       id="path4-206"
       style="fill:#ffffff;stroke-width:0.200323"
       d="m 194.61552,81.807758 c 0,0.146407 -2.50022,0.58212 -3.36293,1.44483 -0.86271,0.86271 -1.29842,3.362929 -1.44483,3.362929 -0.1464,0 -0.58212,-2.500219 -1.44483,-3.362929 C 187.50022,82.389878 185,81.954165 185,81.807758 c 0,-0.146406 2.50022,-0.582119 3.36293,-1.444829 C 189.22564,79.500221 189.66136,77 189.80776,77 c 0.14641,0 0.58212,2.500221 1.44483,3.362929 0.86271,0.86271 3.36293,1.298423 3.36293,1.444829 z" /><path
       id="path4-66"
       style="fill:#ffffff;stroke-width:0.0899202"
       d="m 177.96585,227.80776 c 0,0.0657 -1.12229,0.2613 -1.50954,0.64855 -0.38725,0.38725 -0.58283,1.50954 -0.64855,1.50954 -0.0657,0 -0.2613,-1.12229 -0.64855,-1.50954 -0.38725,-0.38725 -1.50954,-0.58283 -1.50954,-0.64855 0,-0.0657 1.12229,-0.2613 1.50954,-0.64855 0.38725,-0.38725 0.58283,-1.50954 0.64855,-1.50954 0.0657,0 0.2613,1.12229 0.64855,1.50954 0.38725,0.38725 1.50954,0.58283 1.50954,0.64855 z" /><path
       id="path4-66-0"
       style="fill:#ffffff;stroke-width:0.0899202"
       d="m 264.31618,256.15809 c 0,0.0657 -1.12229,0.2613 -1.50954,0.64855 -0.38725,0.38725 -0.58283,1.50954 -0.64855,1.50954 -0.0657,0 -0.2613,-1.12229 -0.64855,-1.50954 C 261.12229,256.41939 260,256.22381 260,256.15809 c 0,-0.0657 1.12229,-0.2613 1.50954,-0.64855 0.38725,-0.38725 0.58283,-1.50954 0.64855,-1.50954 0.0657,0 0.2613,1.12229 0.64855,1.50954 0.38725,0.38725 1.50954,0.58283 1.50954,0.64855 z" /><path
       id="path4-66-1"
       style="fill:#ffffff;stroke-width:0.0899202"
       d="m 272.31618,169.15809 c 0,0.0657 -1.12229,0.2613 -1.50954,0.64855 -0.38725,0.38725 -0.58283,1.50954 -0.64855,1.50954 -0.0657,0 -0.2613,-1.12229 -0.64855,-1.50954 C 269.12229,169.41939 268,169.22381 268,169.15809 c 0,-0.0657 1.12229,-0.2613 1.50954,-0.64855 0.38725,-0.38725 0.58283,-1.50954 0.64855,-1.50954 0.0657,0 0.2613,1.12229 0.64855,1.50954 0.38725,0.38725 1.50954,0.58283 1.50954,0.64855 z" /><path
       id="path4-66-2"
       style="fill:#ffffff;stroke-width:0.0899202"
       d="m 138.31618,218.15809 c 0,0.0657 -1.12229,0.2613 -1.50954,0.64855 -0.38725,0.38725 -0.58283,1.50954 -0.64855,1.50954 -0.0657,0 -0.2613,-1.12229 -0.64855,-1.50954 C 135.12229,218.41939 134,218.22381 134,218.15809 c 0,-0.0657 1.12229,-0.2613 1.50954,-0.64855 0.38725,-0.38725 0.58283,-1.50954 0.64855,-1.50954 0.0657,0 0.2613,1.12229 0.64855,1.50954 0.38725,0.38725 1.50954,0.58283 1.50954,0.64855 z" /><path
       id="path4-66-06"
       style="fill:#ffffff;stroke-width:0.0899202"
       d="m 139.31618,317.15809 c 0,0.0657 -1.12229,0.2613 -1.50954,0.64855 -0.38725,0.38725 -0.58283,1.50954 -0.64855,1.50954 -0.0657,0 -0.2613,-1.12229 -0.64855,-1.50954 C 136.12229,317.41939 135,317.22381 135,317.15809 c 0,-0.0657 1.12229,-0.2613 1.50954,-0.64855 0.38725,-0.38725 0.58283,-1.50954 0.64855,-1.50954 0.0657,0 0.2613,1.12229 0.64855,1.50954 0.38725,0.38725 1.50954,0.58283 1.50954,0.64855 z" /><path
       id="path4-66-4"
       style="fill:#ffffff;stroke-width:0.0899202"
       d="m 207.31618,391.15809 c 0,0.0657 -1.12229,0.2613 -1.50954,0.64855 -0.38725,0.38725 -0.58283,1.50954 -0.64855,1.50954 -0.0657,0 -0.2613,-1.12229 -0.64855,-1.50954 C 204.12229,391.41939 203,391.22381 203,391.15809 c 0,-0.0657 1.12229,-0.2613 1.50954,-0.64855 0.38725,-0.38725 0.58283,-1.50954 0.64855,-1.50954 0.0657,0 0.2613,1.12229 0.64855,1.50954 0.38725,0.38725 1.50954,0.58283 1.50954,0.64855 z" /><path
       id="path4-66-17"
       style="fill:#ffffff;stroke-width:0.0899202"
       d="m 212.31618,326.15809 c 0,0.0657 -1.12229,0.2613 -1.50954,0.64855 -0.38725,0.38725 -0.58283,1.50954 -0.64855,1.50954 -0.0657,0 -0.2613,-1.12229 -0.64855,-1.50954 C 209.12229,326.41939 208,326.22381 208,326.15809 c 0,-0.0657 1.12229,-0.2613 1.50954,-0.64855 0.38725,-0.38725 0.58283,-1.50954 0.64855,-1.50954 0.0657,0 0.2613,1.12229 0.64855,1.50954 0.38725,0.38725 1.50954,0.58283 1.50954,0.64855 z" /><path
       id="path4-66-5"
       style="fill:#ffffff;stroke-width:0.0899202"
       d="m 221.31618,290.15809 c 0,0.0657 -1.12229,0.2613 -1.50954,0.64855 -0.38725,0.38725 -0.58283,1.50954 -0.64855,1.50954 -0.0657,0 -0.2613,-1.12229 -0.64855,-1.50954 C 218.12229,290.41939 217,290.22381 217,290.15809 c 0,-0.0657 1.12229,-0.2613 1.50954,-0.64855 0.38725,-0.38725 0.58283,-1.50954 0.64855,-1.50954 0.0657,0 0.2613,1.12229 0.64855,1.50954 0.38725,0.38725 1.50954,0.58283 1.50954,0.64855 z" /><path
       id="path4-66-6"
       style="fill:#ffffff;stroke-width:0.0899202"
       d="m 353.31618,316.15809 c 0,0.0657 -1.12229,0.2613 -1.50954,0.64855 -0.38725,0.38725 -0.58283,1.50954 -0.64855,1.50954 -0.0657,0 -0.2613,-1.12229 -0.64855,-1.50954 C 350.12229,316.41939 349,316.22381 349,316.15809 c 0,-0.0657 1.12229,-0.2613 1.50954,-0.64855 0.38725,-0.38725 0.58283,-1.50954 0.64855,-1.50954 0.0657,0 0.2613,1.12229 0.64855,1.50954 0.38725,0.38725 1.50954,0.58283 1.50954,0.64855 z" /><path
       id="path4-66-56"
       style="fill:#ffffff;stroke-width:0.0899202"
       d="m 294.31618,382.15809 c 0,0.0657 -1.12229,0.2613 -1.50954,0.64855 -0.38725,0.38725 -0.58283,1.50954 -0.64855,1.50954 -0.0657,0 -0.2613,-1.12229 -0.64855,-1.50954 C 291.12229,382.41939 290,382.22381 290,382.15809 c 0,-0.0657 1.12229,-0.2613 1.50954,-0.64855 0.38725,-0.38725 0.58283,-1.50954 0.64855,-1.50954 0.0657,0 0.2613,1.12229 0.64855,1.50954 0.38725,0.38725 1.50954,0.58283 1.50954,0.64855 z" /><path
       id="path4-66-8"
       style="fill:#ffffff;stroke-width:0.0899202"
       d="m 399.31618,372.15809 c 0,0.0657 -1.12229,0.2613 -1.50954,0.64855 -0.38725,0.38725 -0.58283,1.50954 -0.64855,1.50954 -0.0657,0 -0.2613,-1.12229 -0.64855,-1.50954 C 396.12229,372.41939 395,372.22381 395,372.15809 c 0,-0.0657 1.12229,-0.2613 1.50954,-0.64855 0.38725,-0.38725 0.58283,-1.50954 0.64855,-1.50954 0.0657,0 0.2613,1.12229 0.64855,1.50954 0.38725,0.38725 1.50954,0.58283 1.50954,0.64855 z" /><path
       id="path4-66-3"
       style="fill:#ffffff;stroke-width:0.0899202"
       d="m 87.31618,382.15809 c 0,0.0657 -1.12229,0.2613 -1.50954,0.64855 -0.38725,0.38725 -0.58283,1.50954 -0.64855,1.50954 -0.0657,0 -0.2613,-1.12229 -0.64855,-1.50954 C 84.12229,382.41939 83,382.22381 83,382.15809 c 0,-0.0657 1.12229,-0.2613 1.50954,-0.64855 C 84.89679,381.12229 85.09237,380 85.15809,380 c 0.0657,0 0.2613,1.12229 0.64855,1.50954 0.38725,0.38725 1.50954,0.58283 1.50954,0.64855 z" /><path
       id="path4-66-85"
       style="fill:#ffffff;stroke-width:0.0899202"
       d="m 120.31618,411.15809 c 0,0.0657 -1.12229,0.2613 -1.50954,0.64855 -0.38725,0.38725 -0.58283,1.50954 -0.64855,1.50954 -0.0657,0 -0.2613,-1.12229 -0.64855,-1.50954 C 117.12229,411.41939 116,411.22381 116,411.15809 c 0,-0.0657 1.12229,-0.2613 1.50954,-0.64855 0.38725,-0.38725 0.58283,-1.50954 0.64855,-1.50954 0.0657,0 0.2613,1.12229 0.64855,1.50954 0.38725,0.38725 1.50954,0.58283 1.50954,0.64855 z" /><path
       id="path4-66-38"
       style="fill:#ffffff;stroke-width:0.0899202"
       d="m 152.31618,385.15809 c 0,0.0657 -1.12229,0.2613 -1.50954,0.64855 -0.38725,0.38725 -0.58283,1.50954 -0.64855,1.50954 -0.0657,0 -0.2613,-1.12229 -0.64855,-1.50954 C 149.12229,385.41939 148,385.22381 148,385.15809 c 0,-0.0657 1.12229,-0.2613 1.50954,-0.64855 0.38725,-0.38725 0.58283,-1.50954 0.64855,-1.50954 0.0657,0 0.2613,1.12229 0.64855,1.50954 0.38725,0.38725 1.50954,0.58283 1.50954,0.64855 z" /><path
       id="path4-66-15"
       style="fill:#ffffff;stroke-width:0.0899202"
       d="m 60.31618,326.15809 c 0,0.0657 -1.12229,0.2613 -1.50954,0.64855 -0.38725,0.38725 -0.58283,1.50954 -0.64855,1.50954 -0.0657,0 -0.2613,-1.12229 -0.64855,-1.50954 C 57.12229,326.41939 56,326.22381 56,326.15809 c 0,-0.0657 1.12229,-0.2613 1.50954,-0.64855 C 57.89679,325.12229 58.09237,324 58.15809,324 c 0.0657,0 0.2613,1.12229 0.64855,1.50954 0.38725,0.38725 1.50954,0.58283 1.50954,0.64855 z" /><path
       id="path4-66-81"
       style="fill:#ffffff;stroke-width:0.0899202"
       d="m 41.31618,378.15809 c 0,0.0657 -1.12229,0.2613 -1.50954,0.64855 -0.38725,0.38725 -0.58283,1.50954 -0.64855,1.50954 -0.0657,0 -0.2613,-1.12229 -0.64855,-1.50954 C 38.12229,378.41939 37,378.22381 37,378.15809 c 0,-0.0657 1.12229,-0.2613 1.50954,-0.64855 C 38.89679,377.12229 39.09237,376 39.15809,376 c 0.0657,0 0.2613,1.12229 0.64855,1.50954 0.38725,0.38725 1.50954,0.58283 1.50954,0.64855 z" /><path
       id="path4-66-44"
       style="fill:#ffffff;stroke-width:0.0899202"
       d="m 110.31618,274.15809 c 0,0.0657 -1.12229,0.2613 -1.50954,0.64855 -0.38725,0.38725 -0.58283,1.50954 -0.64855,1.50954 -0.0657,0 -0.2613,-1.12229 -0.64855,-1.50954 C 107.12229,274.41939 106,274.22381 106,274.15809 c 0,-0.0657 1.12229,-0.2613 1.50954,-0.64855 0.38725,-0.38725 0.58283,-1.50954 0.64855,-1.50954 0.0657,0 0.2613,1.12229 0.64855,1.50954 0.38725,0.38725 1.50954,0.58283 1.50954,0.64855 z" /><path
       id="path4-66-63"
       style="fill:#ffffff;stroke-width:0.0899202"
       d="m 68.31618,223.15809 c 0,0.0657 -1.12229,0.2613 -1.50954,0.64855 -0.38725,0.38725 -0.58283,1.50954 -0.64855,1.50954 -0.0657,0 -0.2613,-1.12229 -0.64855,-1.50954 C 65.12229,223.41939 64,223.22381 64,223.15809 c 0,-0.0657 1.12229,-0.2613 1.50954,-0.64855 C 65.89679,222.12229 66.09237,221 66.15809,221 c 0.0657,0 0.2613,1.12229 0.64855,1.50954 0.38725,0.38725 1.50954,0.58283 1.50954,0.64855 z" /><path
       id="path4-66-9"
       style="fill:#ffffff;stroke-width:0.0899202"
       d="m 166.31618,265.15809 c 0,0.0657 -1.12229,0.2613 -1.50954,0.64855 -0.38725,0.38725 -0.58283,1.50954 -0.64855,1.50954 -0.0657,0 -0.2613,-1.12229 -0.64855,-1.50954 C 163.12229,265.41939 162,265.22381 162,265.15809 c 0,-0.0657 1.12229,-0.2613 1.50954,-0.64855 0.38725,-0.38725 0.58283,-1.50954 0.64855,-1.50954 0.0657,0 0.2613,1.12229 0.64855,1.50954 0.38725,0.38725 1.50954,0.58283 1.50954,0.64855 z" /><path
       id="path4-66-7"
       style="fill:#ffffff;stroke-width:0.0899202"
       d="m 67.31618,168.15809 c 0,0.0657 -1.12229,0.2613 -1.50954,0.64855 -0.38725,0.38725 -0.58283,1.50954 -0.64855,1.50954 -0.0657,0 -0.2613,-1.12229 -0.64855,-1.50954 C 64.12229,168.41939 63,168.22381 63,168.15809 c 0,-0.0657 1.12229,-0.2613 1.50954,-0.64855 C 64.89679,167.12229 65.09237,166 65.15809,166 c 0.0657,0 0.2613,1.12229 0.64855,1.50954 0.38725,0.38725 1.50954,0.58283 1.50954,0.64855 z" /><path
       id="path4-66-41"
       style="fill:#ffffff;stroke-width:0.0899202"
       d="m 35.31618,107.15809 c 0,0.0657 -1.12229,0.2613 -1.50954,0.64855 -0.38725,0.38725 -0.58283,1.50954 -0.64855,1.50954 -0.0657,0 -0.2613,-1.12229 -0.64855,-1.50954 C 32.12229,107.41939 31,107.22381 31,107.15809 c 0,-0.0657 1.12229,-0.2613 1.50954,-0.64855 C 32.89679,106.12229 33.09237,105 33.15809,105 c 0.0657,0 0.2613,1.12229 0.64855,1.50954 0.38725,0.38725 1.50954,0.58283 1.50954,0.64855 z" /><path
       id="path4-66-75"
       style="fill:#ffffff;stroke-width:0.0899202"
       d="m 139.31618,103.15809 c 0,0.0657 -1.12229,0.2613 -1.50954,0.64855 -0.38725,0.38725 -0.58283,1.50954 -0.64855,1.50954 -0.0657,0 -0.2613,-1.12229 -0.64855,-1.50954 C 136.12229,103.41939 135,103.22381 135,103.15809 c 0,-0.0657 1.12229,-0.2613 1.50954,-0.64855 0.38725,-0.38725 0.58283,-1.50954 0.64855,-1.50954 0.0657,0 0.2613,1.12229 0.64855,1.50954 0.38725,0.38725 1.50954,0.58283 1.50954,0.64855 z" /><path
       id="path4-66-31"
       style="fill:#ffffff;stroke-width:0.0899202"
       d="m 37.31618,41.15809 c 0,0.0657 -1.12229,0.2613 -1.50954,0.64855 -0.38725,0.38725 -0.58283,1.50954 -0.64855,1.50954 -0.0657,0 -0.2613,-1.12229 -0.64855,-1.50954 C 34.12229,41.41939 33,41.22381 33,41.15809 c 0,-0.0657 1.12229,-0.2613 1.50954,-0.64855 C 34.89679,40.12229 35.09237,39 35.15809,39 c 0.0657,0 0.2613,1.12229 0.64855,1.50954 0.38725,0.38725 1.50954,0.58283 1.50954,0.64855 z" /><path
       id="path4-66-43"
       style="fill:#ffffff;stroke-width:0.0899202"
       d="m 124.31618,26.15809 c 0,0.0657 -1.12229,0.2613 -1.50954,0.64855 -0.38725,0.38725 -0.58283,1.50954 -0.64855,1.50954 -0.0657,0 -0.2613,-1.12229 -0.64855,-1.50954 C 121.12229,26.41939 120,26.22381 120,26.15809 c 0,-0.0657 1.12229,-0.2613 1.50954,-0.64855 C 121.89679,25.12229 122.09237,24 122.15809,24 c 0.0657,0 0.2613,1.12229 0.64855,1.50954 0.38725,0.38725 1.50954,0.58283 1.50954,0.64855 z" /><path
       id="path4-66-60"
       style="fill:#ffffff;stroke-width:0.0899202"
       d="m 385.31618,63.15809 c 0,0.0657 -1.12229,0.2613 -1.50954,0.64855 -0.38725,0.38725 -0.58283,1.50954 -0.64855,1.50954 -0.0657,0 -0.2613,-1.12229 -0.64855,-1.50954 C 382.12229,63.41939 381,63.22381 381,63.15809 c 0,-0.0657 1.12229,-0.2613 1.50954,-0.64855 C 382.89679,62.12229 383.09237,61 383.15809,61 c 0.0657,0 0.2613,1.12229 0.64855,1.50954 0.38725,0.38725 1.50954,0.58283 1.50954,0.64855 z" /><path
       id="path4-66-89"
       style="fill:#ffffff;stroke-width:0.0899202"
       d="m 267.31618,59.15809 c 0,0.0657 -1.12229,0.2613 -1.50954,0.64855 -0.38725,0.38725 -0.58283,1.50954 -0.64855,1.50954 -0.0657,0 -0.2613,-1.12229 -0.64855,-1.50954 C 264.12229,59.41939 263,59.22381 263,59.15809 c 0,-0.0657 1.12229,-0.2613 1.50954,-0.64855 C 264.89679,58.12229 265.09237,57 265.15809,57 c 0.0657,0 0.2613,1.12229 0.64855,1.50954 0.38725,0.38725 1.50954,0.58283 1.50954,0.64855 z" /><path
       id="path4-66-430"
       style="fill:#ffffff;stroke-width:0.0899202"
       d="m 337.31618,137.15809 c 0,0.0657 -1.12229,0.2613 -1.50954,0.64855 -0.38725,0.38725 -0.58283,1.50954 -0.64855,1.50954 -0.0657,0 -0.2613,-1.12229 -0.64855,-1.50954 C 334.12229,137.41939 333,137.22381 333,137.15809 c 0,-0.0657 1.12229,-0.2613 1.50954,-0.64855 0.38725,-0.38725 0.58283,-1.50954 0.64855,-1.50954 0.0657,0 0.2613,1.12229 0.64855,1.50954 0.38725,0.38725 1.50954,0.58283 1.50954,0.64855 z" /><path
       id="path4-66-25"
       style="fill:#ffffff;stroke-width:0.0899202"
       d="m 422.31618,218.15809 c 0,0.0657 -1.12229,0.2613 -1.50954,0.64855 -0.38725,0.38725 -0.58283,1.50954 -0.64855,1.50954 -0.0657,0 -0.2613,-1.12229 -0.64855,-1.50954 C 419.12229,218.41939 418,218.22381 418,218.15809 c 0,-0.0657 1.12229,-0.2613 1.50954,-0.64855 0.38725,-0.38725 0.58283,-1.50954 0.64855,-1.50954 0.0657,0 0.2613,1.12229 0.64855,1.50954 0.38725,0.38725 1.50954,0.58283 1.50954,0.64855 z" /><path
       id="path4-66-94"
       style="fill:#ffffff;stroke-width:0.0899202"
       d="m 340.31618,225.15809 c 0,0.0657 -1.12229,0.2613 -1.50954,0.64855 -0.38725,0.38725 -0.58283,1.50954 -0.64855,1.50954 -0.0657,0 -0.2613,-1.12229 -0.64855,-1.50954 C 337.12229,225.41939 336,225.22381 336,225.15809 c 0,-0.0657 1.12229,-0.2613 1.50954,-0.64855 0.38725,-0.38725 0.58283,-1.50954 0.64855,-1.50954 0.0657,0 0.2613,1.12229 0.64855,1.50954 0.38725,0.38725 1.50954,0.58283 1.50954,0.64855 z" /><path
       id="path4-66-24"
       style="fill:#ffffff;stroke-width:0.0899202"
       d="m 416.31618,296.15809 c 0,0.0657 -1.12229,0.2613 -1.50954,0.64855 -0.38725,0.38725 -0.58283,1.50954 -0.64855,1.50954 -0.0657,0 -0.2613,-1.12229 -0.64855,-1.50954 C 413.12229,296.41939 412,296.22381 412,296.15809 c 0,-0.0657 1.12229,-0.2613 1.50954,-0.64855 0.38725,-0.38725 0.58283,-1.50954 0.64855,-1.50954 0.0657,0 0.2613,1.12229 0.64855,1.50954 0.38725,0.38725 1.50954,0.58283 1.50954,0.64855 z" /><path
       id="path4-66-48"
       style="fill:#ffffff;stroke-width:0.0899202"
       d="m 450.31618,352.15809 c 0,0.0657 -1.12229,0.2613 -1.50954,0.64855 -0.38725,0.38725 -0.58283,1.50954 -0.64855,1.50954 -0.0657,0 -0.2613,-1.12229 -0.64855,-1.50954 C 447.12229,352.41939 446,352.22381 446,352.15809 c 0,-0.0657 1.12229,-0.2613 1.50954,-0.64855 0.38725,-0.38725 0.58283,-1.50954 0.64855,-1.50954 0.0657,0 0.2613,1.12229 0.64855,1.50954 0.38725,0.38725 1.50954,0.58283 1.50954,0.64855 z" /><path
       id="path4-66-93"
       style="fill:#ffffff;stroke-width:0.0899202"
       d="m 460.31618,131.15809 c 0,0.0657 -1.12229,0.2613 -1.50954,0.64855 -0.38725,0.38725 -0.58283,1.50954 -0.64855,1.50954 -0.0657,0 -0.2613,-1.12229 -0.64855,-1.50954 C 457.12229,131.41939 456,131.22381 456,131.15809 c 0,-0.0657 1.12229,-0.2613 1.50954,-0.64855 0.38725,-0.38725 0.58283,-1.50954 0.64855,-1.50954 0.0657,0 0.2613,1.12229 0.64855,1.50954 0.38725,0.38725 1.50954,0.58283 1.50954,0.64855 z" /><path
       id="path4-66-21"
       style="fill:#ffffff;stroke-width:0.0899202"
       d="m 479.31618,227.15809 c 0,0.0657 -1.12229,0.2613 -1.50954,0.64855 -0.38725,0.38725 -0.58283,1.50954 -0.64855,1.50954 -0.0657,0 -0.2613,-1.12229 -0.64855,-1.50954 C 476.12229,227.41939 475,227.22381 475,227.15809 c 0,-0.0657 1.12229,-0.2613 1.50954,-0.64855 0.38725,-0.38725 0.58283,-1.50954 0.64855,-1.50954 0.0657,0 0.2613,1.12229 0.64855,1.50954 0.38725,0.38725 1.50954,0.58283 1.50954,0.64855 z" /><g
       inkscape:groupmode="layer"
       id="g88"
       inkscape:label="cosmos light"
       style="display:inline"><path
         id="path31"
         style="fill:#ffffff;filter:url(#filter145)"
         d="m 90.58158,85.590849 c 0,0.146407 -2.500219,0.58212 -3.362928,1.44483 -0.86271,0.86271 -1.298423,3.362929 -1.444829,3.362929 -0.146408,0 -0.58212,-2.500219 -1.44483,-3.362929 -0.862709,-0.86271 -3.362929,-1.298423 -3.362929,-1.44483 0,-0.146406 2.50022,-0.582119 3.362929,-1.444829 0.86271,-0.862708 1.298422,-3.362929 1.44483,-3.362929 0.146406,0 0.582119,2.500221 1.444829,3.362929 0.862709,0.86271 3.362928,1.298423 3.362928,1.444829 z" /><path
         id="path32"
         style="fill:#ffffff;filter:url(#filter144)"
         d="m 174.61552,162.80776 c 0,0.1464 -2.50022,0.58212 -3.36293,1.44483 -0.86271,0.86271 -1.29843,3.36293 -1.44483,3.36293 -0.14641,0 -0.58212,-2.50022 -1.44483,-3.36293 C 167.50022,163.38988 165,162.95416 165,162.80776 c 0,-0.14641 2.50022,-0.58212 3.36293,-1.44483 0.86271,-0.86271 1.29842,-3.36293 1.44483,-3.36293 0.1464,0 0.58212,2.50022 1.44483,3.36293 0.86271,0.86271 3.36293,1.29842 3.36293,1.44483 z" /><path
         id="path33"
         style="fill:#ffffff;filter:url(#filter143)"
         d="m 343.61552,184.80776 c 0,0.1464 -2.50022,0.58212 -3.36293,1.44483 -0.86271,0.86271 -1.29842,3.36293 -1.44483,3.36293 -0.1464,0 -0.58212,-2.50022 -1.44483,-3.36293 C 336.50022,185.38988 334,184.95416 334,184.80776 c 0,-0.14641 2.50022,-0.58212 3.36293,-1.44483 0.86271,-0.86271 1.29843,-3.36293 1.44483,-3.36293 0.14641,0 0.58212,2.50022 1.44483,3.36293 0.86271,0.86271 3.36293,1.29842 3.36293,1.44483 z" /><path
         id="path34"
         style="fill:#ffffff;filter:url(#filter142)"
         d="m 178.61552,305.80776 c 0,0.14641 -2.50022,0.58212 -3.36293,1.44483 -0.86271,0.86271 -1.29843,3.36293 -1.44483,3.36293 -0.14641,0 -0.58212,-2.50022 -1.44483,-3.36293 C 171.50022,306.38988 169,305.95417 169,305.80776 c 0,-0.14641 2.50022,-0.58212 3.36293,-1.44483 0.86271,-0.86271 1.29842,-3.36293 1.44483,-3.36293 0.1464,0 0.58212,2.50022 1.44483,3.36293 0.86271,0.86271 3.36293,1.29842 3.36293,1.44483 z" /><path
         id="path35"
         style="fill:#ffffff;filter:url(#filter141)"
         d="m 55.615516,269.80776 c 0,0.14641 -2.500219,0.58212 -3.362928,1.44483 -0.86271,0.86271 -1.298423,3.36293 -1.444829,3.36293 -0.146408,0 -0.58212,-2.50022 -1.44483,-3.36293 C 48.50022,270.38988 46,269.95417 46,269.80776 c 0,-0.14641 2.50022,-0.58212 3.362929,-1.44483 0.86271,-0.86271 1.298422,-3.36293 1.44483,-3.36293 0.146406,0 0.582119,2.50022 1.444829,3.36293 0.862709,0.86271 3.362928,1.29842 3.362928,1.44483 z" /><path
         id="path36"
         style="fill:#ffffff;filter:url(#filter140)"
         d="m 110.61552,151.80776 c 0,0.1464 -2.50022,0.58212 -3.36293,1.44483 -0.86271,0.86271 -1.29842,3.36293 -1.44483,3.36293 -0.14641,0 -0.58212,-2.50022 -1.44483,-3.36293 C 103.50022,152.38988 101,151.95416 101,151.80776 c 0,-0.14641 2.50022,-0.58212 3.36293,-1.44483 0.86271,-0.86271 1.29842,-3.36293 1.44483,-3.36293 0.14641,0 0.58212,2.50022 1.44483,3.36293 0.86271,0.86271 3.36293,1.29842 3.36293,1.44483 z" /><path
         id="path37"
         style="fill:#ffffff;filter:url(#filter139)"
         d="m 332.61552,61.807758 c 0,0.146407 -2.50022,0.58212 -3.36293,1.44483 -0.86271,0.86271 -1.29842,3.362929 -1.44483,3.362929 -0.1464,0 -0.58212,-2.500219 -1.44483,-3.362929 C 325.50022,62.389878 323,61.954165 323,61.807758 c 0,-0.146406 2.50022,-0.582119 3.36293,-1.444829 C 327.22564,59.500221 327.66136,57 327.80776,57 c 0.14641,0 0.58212,2.500221 1.44483,3.362929 0.86271,0.86271 3.36293,1.298423 3.36293,1.444829 z" /><path
         id="path38"
         style="fill:#ffffff;filter:url(#filter138)"
         d="m 387.61552,274.80776 c 0,0.14641 -2.50022,0.58212 -3.36293,1.44483 -0.86271,0.86271 -1.29842,3.36293 -1.44483,3.36293 -0.14641,0 -0.58212,-2.50022 -1.44483,-3.36293 C 380.50022,275.38988 378,274.95417 378,274.80776 c 0,-0.14641 2.50022,-0.58212 3.36293,-1.44483 0.86271,-0.86271 1.29842,-3.36293 1.44483,-3.36293 0.14641,0 0.58212,2.50022 1.44483,3.36293 0.86271,0.86271 3.36293,1.29842 3.36293,1.44483 z" /><path
         id="path39"
         style="fill:#ffffff;filter:url(#filter137)"
         d="m 290.61552,330.80776 c 0,0.14641 -2.50022,0.58212 -3.36293,1.44483 -0.86271,0.86271 -1.29842,3.36293 -1.44483,3.36293 -0.1464,0 -0.58212,-2.50022 -1.44483,-3.36293 C 283.50022,331.38988 281,330.95417 281,330.80776 c 0,-0.14641 2.50022,-0.58212 3.36293,-1.44483 0.86271,-0.86271 1.29843,-3.36293 1.44483,-3.36293 0.14641,0 0.58212,2.50022 1.44483,3.36293 0.86271,0.86271 3.36293,1.29842 3.36293,1.44483 z" /><path
         id="path40"
         style="fill:#ffffff;filter:url(#filter136)"
         d="m 199.61552,417.80776 c 0,0.14641 -2.50022,0.58212 -3.36293,1.44483 -0.86271,0.86271 -1.29842,3.36293 -1.44483,3.36293 -0.1464,0 -0.58212,-2.50022 -1.44483,-3.36293 C 192.50022,418.38988 190,417.95417 190,417.80776 c 0,-0.14641 2.50022,-0.58212 3.36293,-1.44483 0.86271,-0.86271 1.29843,-3.36293 1.44483,-3.36293 0.14641,0 0.58212,2.50022 1.44483,3.36293 0.86271,0.86271 3.36293,1.29842 3.36293,1.44483 z" /><path
         id="path41"
         style="fill:#ffffff;filter:url(#filter135)"
         d="m 48.615516,438.80776 c 0,0.14641 -2.500219,0.58212 -3.362928,1.44483 -0.86271,0.86271 -1.298423,3.36293 -1.444829,3.36293 -0.146408,0 -0.58212,-2.50022 -1.44483,-3.36293 C 41.50022,439.38988 39,438.95417 39,438.80776 c 0,-0.14641 2.50022,-0.58212 3.362929,-1.44483 0.86271,-0.86271 1.298422,-3.36293 1.44483,-3.36293 0.146406,0 0.582119,2.50022 1.444829,3.36293 0.862709,0.86271 3.362928,1.29842 3.362928,1.44483 z" /><path
         id="path42"
         style="fill:#ffffff;filter:url(#filter134)"
         d="m 448.61552,460.80776 c 0,0.14641 -2.50022,0.58212 -3.36293,1.44483 -0.86271,0.86271 -1.29842,3.36293 -1.44483,3.36293 -0.14641,0 -0.58212,-2.50022 -1.44483,-3.36293 C 441.50022,461.38988 439,460.95417 439,460.80776 c 0,-0.14641 2.50022,-0.58212 3.36293,-1.44483 0.86271,-0.86271 1.29842,-3.36293 1.44483,-3.36293 0.14641,0 0.58212,2.50022 1.44483,3.36293 0.86271,0.86271 3.36293,1.29842 3.36293,1.44483 z" /><path
         id="path43"
         style="fill:#ffffff;filter:url(#filter133)"
         d="m 104.61552,349.80776 c 0,0.14641 -2.50022,0.58212 -3.36293,1.44483 -0.86271,0.86271 -1.298425,3.36293 -1.444831,3.36293 -0.146408,0 -0.58212,-2.50022 -1.44483,-3.36293 C 97.50022,350.38988 95,349.95417 95,349.80776 c 0,-0.14641 2.50022,-0.58212 3.362929,-1.44483 0.86271,-0.86271 1.298422,-3.36293 1.44483,-3.36293 0.146406,0 0.582121,2.50022 1.444831,3.36293 0.86271,0.86271 3.36293,1.29842 3.36293,1.44483 z" /><path
         id="path44"
         style="fill:#ffffff;filter:url(#filter132)"
         d="m 208.61552,469.80776 c 0,0.14641 -2.50022,0.58212 -3.36293,1.44483 -0.86271,0.86271 -1.29842,3.36293 -1.44483,3.36293 -0.1464,0 -0.58212,-2.50022 -1.44483,-3.36293 C 201.50022,470.38988 199,469.95417 199,469.80776 c 0,-0.14641 2.50022,-0.58212 3.36293,-1.44483 0.86271,-0.86271 1.29843,-3.36293 1.44483,-3.36293 0.14641,0 0.58212,2.50022 1.44483,3.36293 0.86271,0.86271 3.36293,1.29842 3.36293,1.44483 z" /><path
         id="path45"
         style="fill:#ffffff;filter:url(#filter131)"
         d="m 365.61552,410.80776 c 0,0.14641 -2.50022,0.58212 -3.36293,1.44483 -0.86271,0.86271 -1.29842,3.36293 -1.44483,3.36293 -0.14641,0 -0.58212,-2.50022 -1.44483,-3.36293 C 358.50022,411.38988 356,410.95417 356,410.80776 c 0,-0.14641 2.50022,-0.58212 3.36293,-1.44483 0.86271,-0.86271 1.29842,-3.36293 1.44483,-3.36293 0.14641,0 0.58212,2.50022 1.44483,3.36293 0.86271,0.86271 3.36293,1.29842 3.36293,1.44483 z" /><path
         id="path46"
         style="fill:#ffffff;filter:url(#filter130)"
         d="m 305.61552,282.80776 c 0,0.14641 -2.50022,0.58212 -3.36293,1.44483 -0.86271,0.86271 -1.29842,3.36293 -1.44483,3.36293 -0.1464,0 -0.58212,-2.50022 -1.44483,-3.36293 C 298.50022,283.38988 296,282.95417 296,282.80776 c 0,-0.14641 2.50022,-0.58212 3.36293,-1.44483 0.86271,-0.86271 1.29843,-3.36293 1.44483,-3.36293 0.14641,0 0.58212,2.50022 1.44483,3.36293 0.86271,0.86271 3.36293,1.29842 3.36293,1.44483 z" /><path
         id="path47"
         style="fill:#ffffff;filter:url(#filter129)"
         d="m 386.61552,119.80776 c 0,0.14641 -2.50022,0.58212 -3.36293,1.44483 -0.86271,0.86271 -1.29842,3.36293 -1.44483,3.36293 -0.14641,0 -0.58212,-2.50022 -1.44483,-3.36293 C 379.50022,120.38988 377,119.95417 377,119.80776 c 0,-0.14641 2.50022,-0.58212 3.36293,-1.44483 0.86271,-0.86271 1.29842,-3.36293 1.44483,-3.36293 0.14641,0 0.58212,2.50022 1.44483,3.36293 0.86271,0.86271 3.36293,1.29842 3.36293,1.44483 z" /><path
         id="path48"
         style="fill:#ffffff;filter:url(#filter128)"
         d="m 443.61552,101.80776 c 0,0.14641 -2.50022,0.58212 -3.36293,1.44483 -0.86271,0.86271 -1.29842,3.36293 -1.44483,3.36293 -0.14641,0 -0.58212,-2.50022 -1.44483,-3.36293 C 436.50022,102.38988 434,101.95417 434,101.80776 c 0,-0.14641 2.50022,-0.58212 3.36293,-1.44483 C 438.22564,99.50022 438.66135,97 438.80776,97 c 0.14641,0 0.58212,2.50022 1.44483,3.36293 0.86271,0.86271 3.36293,1.29842 3.36293,1.44483 z" /><path
         id="path49"
         style="fill:#ffffff;filter:url(#filter127)"
         d="m 441.61552,163.80776 c 0,0.14641 -2.50022,0.58212 -3.36293,1.44483 -0.86271,0.86271 -1.29842,3.36293 -1.44483,3.36293 -0.14641,0 -0.58212,-2.50022 -1.44483,-3.36293 C 434.50022,164.38988 432,163.95417 432,163.80776 c 0,-0.14641 2.50022,-0.58212 3.36293,-1.44483 0.86271,-0.86271 1.29842,-3.36293 1.44483,-3.36293 0.14641,0 0.58212,2.50022 1.44483,3.36293 0.86271,0.86271 3.36293,1.29842 3.36293,1.44483 z" /><path
         id="path50"
         style="fill:#ffffff;filter:url(#filter126)"
         d="m 465.61552,81.80776 c 0,0.14641 -2.50022,0.58212 -3.36293,1.44483 -0.86271,0.86271 -1.29842,3.36293 -1.44483,3.36293 -0.14641,0 -0.58212,-2.50022 -1.44483,-3.36293 C 458.50022,82.38988 456,81.95417 456,81.80776 c 0,-0.14641 2.50022,-0.58212 3.36293,-1.44483 C 460.22564,79.50022 460.66135,77 460.80776,77 c 0.14641,0 0.58212,2.50022 1.44483,3.36293 0.86271,0.86271 3.36293,1.29842 3.36293,1.44483 z" /><path
         id="path51"
         style="fill:#ffffff;filter:url(#filter125)"
         d="m 464.61552,25.80776 c 0,0.14641 -2.50022,0.58212 -3.36293,1.44483 -0.86271,0.86271 -1.29842,3.36293 -1.44483,3.36293 -0.14641,0 -0.58212,-2.50022 -1.44483,-3.36293 C 457.50022,26.38988 455,25.95417 455,25.80776 c 0,-0.14641 2.50022,-0.58212 3.36293,-1.44483 C 459.22564,23.50022 459.66135,21 459.80776,21 c 0.14641,0 0.58212,2.50022 1.44483,3.36293 0.86271,0.86271 3.36293,1.29842 3.36293,1.44483 z" /><path
         id="path52"
         style="fill:#ffffff;filter:url(#filter124)"
         d="m 314.61552,24.80776 c 0,0.14641 -2.50022,0.58212 -3.36293,1.44483 -0.86271,0.86271 -1.29842,3.36293 -1.44483,3.36293 -0.14641,0 -0.58212,-2.50022 -1.44483,-3.36293 C 307.50022,25.38988 305,24.95417 305,24.80776 c 0,-0.14641 2.50022,-0.58212 3.36293,-1.44483 C 309.22564,22.50022 309.66135,20 309.80776,20 c 0.14641,0 0.58212,2.50022 1.44483,3.36293 0.86271,0.86271 3.36293,1.29842 3.36293,1.44483 z" /><path
         id="path53"
         style="fill:#ffffff;filter:url(#filter123)"
         d="m 264.61552,127.80776 c 0,0.14641 -2.50022,0.58212 -3.36293,1.44483 -0.86271,0.86271 -1.29842,3.36293 -1.44483,3.36293 -0.1464,0 -0.58212,-2.50022 -1.44483,-3.36293 C 257.50022,128.38988 255,127.95417 255,127.80776 c 0,-0.14641 2.50022,-0.58212 3.36293,-1.44483 0.86271,-0.86271 1.29843,-3.36293 1.44483,-3.36293 0.14641,0 0.58212,2.50022 1.44483,3.36293 0.86271,0.86271 3.36293,1.29842 3.36293,1.44483 z" /><path
         id="path54"
         style="fill:#ffffff;filter:url(#filter122)"
         d="m 251.61552,212.80776 c 0,0.14641 -2.50022,0.58212 -3.36293,1.44483 -0.86271,0.86271 -1.29842,3.36293 -1.44483,3.36293 -0.1464,0 -0.58212,-2.50022 -1.44483,-3.36293 C 244.50022,213.38988 242,212.95417 242,212.80776 c 0,-0.14641 2.50022,-0.58212 3.36293,-1.44483 0.86271,-0.86271 1.29843,-3.36293 1.44483,-3.36293 0.14641,0 0.58212,2.50022 1.44483,3.36293 0.86271,0.86271 3.36293,1.29842 3.36293,1.44483 z" /><path
         id="path55"
         style="fill:#ffffff;filter:url(#filter121)"
         d="m 194.61552,81.807758 c 0,0.146407 -2.50022,0.58212 -3.36293,1.44483 -0.86271,0.86271 -1.29842,3.362929 -1.44483,3.362929 -0.1464,0 -0.58212,-2.500219 -1.44483,-3.362929 C 187.50022,82.389878 185,81.954165 185,81.807758 c 0,-0.146406 2.50022,-0.582119 3.36293,-1.444829 C 189.22564,79.500221 189.66136,77 189.80776,77 c 0.14641,0 0.58212,2.500221 1.44483,3.362929 0.86271,0.86271 3.36293,1.298423 3.36293,1.444829 z" /><path
         id="path56"
         style="fill:#ffffff;filter:url(#filter120)"
         d="m 177.96585,227.80776 c 0,0.0657 -1.12229,0.2613 -1.50954,0.64855 -0.38725,0.38725 -0.58283,1.50954 -0.64855,1.50954 -0.0657,0 -0.2613,-1.12229 -0.64855,-1.50954 -0.38725,-0.38725 -1.50954,-0.58283 -1.50954,-0.64855 0,-0.0657 1.12229,-0.2613 1.50954,-0.64855 0.38725,-0.38725 0.58283,-1.50954 0.64855,-1.50954 0.0657,0 0.2613,1.12229 0.64855,1.50954 0.38725,0.38725 1.50954,0.58283 1.50954,0.64855 z" /><path
         id="path57"
         style="fill:#ffffff;filter:url(#filter119)"
         d="m 264.31618,256.15809 c 0,0.0657 -1.12229,0.2613 -1.50954,0.64855 -0.38725,0.38725 -0.58283,1.50954 -0.64855,1.50954 -0.0657,0 -0.2613,-1.12229 -0.64855,-1.50954 C 261.12229,256.41939 260,256.22381 260,256.15809 c 0,-0.0657 1.12229,-0.2613 1.50954,-0.64855 0.38725,-0.38725 0.58283,-1.50954 0.64855,-1.50954 0.0657,0 0.2613,1.12229 0.64855,1.50954 0.38725,0.38725 1.50954,0.58283 1.50954,0.64855 z" /><path
         id="path58"
         style="fill:#ffffff;filter:url(#filter118)"
         d="m 272.31618,169.15809 c 0,0.0657 -1.12229,0.2613 -1.50954,0.64855 -0.38725,0.38725 -0.58283,1.50954 -0.64855,1.50954 -0.0657,0 -0.2613,-1.12229 -0.64855,-1.50954 C 269.12229,169.41939 268,169.22381 268,169.15809 c 0,-0.0657 1.12229,-0.2613 1.50954,-0.64855 0.38725,-0.38725 0.58283,-1.50954 0.64855,-1.50954 0.0657,0 0.2613,1.12229 0.64855,1.50954 0.38725,0.38725 1.50954,0.58283 1.50954,0.64855 z" /><path
         id="path59"
         style="fill:#ffffff;filter:url(#filter117)"
         d="m 138.31618,218.15809 c 0,0.0657 -1.12229,0.2613 -1.50954,0.64855 -0.38725,0.38725 -0.58283,1.50954 -0.64855,1.50954 -0.0657,0 -0.2613,-1.12229 -0.64855,-1.50954 C 135.12229,218.41939 134,218.22381 134,218.15809 c 0,-0.0657 1.12229,-0.2613 1.50954,-0.64855 0.38725,-0.38725 0.58283,-1.50954 0.64855,-1.50954 0.0657,0 0.2613,1.12229 0.64855,1.50954 0.38725,0.38725 1.50954,0.58283 1.50954,0.64855 z" /><path
         id="path60"
         style="fill:#ffffff;filter:url(#filter116)"
         d="m 139.31618,317.15809 c 0,0.0657 -1.12229,0.2613 -1.50954,0.64855 -0.38725,0.38725 -0.58283,1.50954 -0.64855,1.50954 -0.0657,0 -0.2613,-1.12229 -0.64855,-1.50954 C 136.12229,317.41939 135,317.22381 135,317.15809 c 0,-0.0657 1.12229,-0.2613 1.50954,-0.64855 0.38725,-0.38725 0.58283,-1.50954 0.64855,-1.50954 0.0657,0 0.2613,1.12229 0.64855,1.50954 0.38725,0.38725 1.50954,0.58283 1.50954,0.64855 z" /><path
         id="path61"
         style="fill:#ffffff;filter:url(#filter115)"
         d="m 207.31618,391.15809 c 0,0.0657 -1.12229,0.2613 -1.50954,0.64855 -0.38725,0.38725 -0.58283,1.50954 -0.64855,1.50954 -0.0657,0 -0.2613,-1.12229 -0.64855,-1.50954 C 204.12229,391.41939 203,391.22381 203,391.15809 c 0,-0.0657 1.12229,-0.2613 1.50954,-0.64855 0.38725,-0.38725 0.58283,-1.50954 0.64855,-1.50954 0.0657,0 0.2613,1.12229 0.64855,1.50954 0.38725,0.38725 1.50954,0.58283 1.50954,0.64855 z" /><path
         id="path62"
         style="fill:#ffffff;filter:url(#filter114)"
         d="m 212.31618,326.15809 c 0,0.0657 -1.12229,0.2613 -1.50954,0.64855 -0.38725,0.38725 -0.58283,1.50954 -0.64855,1.50954 -0.0657,0 -0.2613,-1.12229 -0.64855,-1.50954 C 209.12229,326.41939 208,326.22381 208,326.15809 c 0,-0.0657 1.12229,-0.2613 1.50954,-0.64855 0.38725,-0.38725 0.58283,-1.50954 0.64855,-1.50954 0.0657,0 0.2613,1.12229 0.64855,1.50954 0.38725,0.38725 1.50954,0.58283 1.50954,0.64855 z" /><path
         id="path63"
         style="fill:#ffffff;filter:url(#filter113)"
         d="m 221.31618,290.15809 c 0,0.0657 -1.12229,0.2613 -1.50954,0.64855 -0.38725,0.38725 -0.58283,1.50954 -0.64855,1.50954 -0.0657,0 -0.2613,-1.12229 -0.64855,-1.50954 C 218.12229,290.41939 217,290.22381 217,290.15809 c 0,-0.0657 1.12229,-0.2613 1.50954,-0.64855 0.38725,-0.38725 0.58283,-1.50954 0.64855,-1.50954 0.0657,0 0.2613,1.12229 0.64855,1.50954 0.38725,0.38725 1.50954,0.58283 1.50954,0.64855 z" /><path
         id="path64"
         style="fill:#ffffff;filter:url(#filter112)"
         d="m 353.31618,316.15809 c 0,0.0657 -1.12229,0.2613 -1.50954,0.64855 -0.38725,0.38725 -0.58283,1.50954 -0.64855,1.50954 -0.0657,0 -0.2613,-1.12229 -0.64855,-1.50954 C 350.12229,316.41939 349,316.22381 349,316.15809 c 0,-0.0657 1.12229,-0.2613 1.50954,-0.64855 0.38725,-0.38725 0.58283,-1.50954 0.64855,-1.50954 0.0657,0 0.2613,1.12229 0.64855,1.50954 0.38725,0.38725 1.50954,0.58283 1.50954,0.64855 z" /><path
         id="path65"
         style="fill:#ffffff;filter:url(#filter111)"
         d="m 294.31618,382.15809 c 0,0.0657 -1.12229,0.2613 -1.50954,0.64855 -0.38725,0.38725 -0.58283,1.50954 -0.64855,1.50954 -0.0657,0 -0.2613,-1.12229 -0.64855,-1.50954 C 291.12229,382.41939 290,382.22381 290,382.15809 c 0,-0.0657 1.12229,-0.2613 1.50954,-0.64855 0.38725,-0.38725 0.58283,-1.50954 0.64855,-1.50954 0.0657,0 0.2613,1.12229 0.64855,1.50954 0.38725,0.38725 1.50954,0.58283 1.50954,0.64855 z" /><path
         id="path66"
         style="fill:#ffffff;filter:url(#filter110)"
         d="m 399.31618,372.15809 c 0,0.0657 -1.12229,0.2613 -1.50954,0.64855 -0.38725,0.38725 -0.58283,1.50954 -0.64855,1.50954 -0.0657,0 -0.2613,-1.12229 -0.64855,-1.50954 C 396.12229,372.41939 395,372.22381 395,372.15809 c 0,-0.0657 1.12229,-0.2613 1.50954,-0.64855 0.38725,-0.38725 0.58283,-1.50954 0.64855,-1.50954 0.0657,0 0.2613,1.12229 0.64855,1.50954 0.38725,0.38725 1.50954,0.58283 1.50954,0.64855 z" /><path
         id="path67"
         style="fill:#ffffff;filter:url(#filter109)"
         d="m 87.31618,382.15809 c 0,0.0657 -1.12229,0.2613 -1.50954,0.64855 -0.38725,0.38725 -0.58283,1.50954 -0.64855,1.50954 -0.0657,0 -0.2613,-1.12229 -0.64855,-1.50954 C 84.12229,382.41939 83,382.22381 83,382.15809 c 0,-0.0657 1.12229,-0.2613 1.50954,-0.64855 C 84.89679,381.12229 85.09237,380 85.15809,380 c 0.0657,0 0.2613,1.12229 0.64855,1.50954 0.38725,0.38725 1.50954,0.58283 1.50954,0.64855 z" /><path
         id="path68"
         style="fill:#ffffff;filter:url(#filter108)"
         d="m 120.31618,411.15809 c 0,0.0657 -1.12229,0.2613 -1.50954,0.64855 -0.38725,0.38725 -0.58283,1.50954 -0.64855,1.50954 -0.0657,0 -0.2613,-1.12229 -0.64855,-1.50954 C 117.12229,411.41939 116,411.22381 116,411.15809 c 0,-0.0657 1.12229,-0.2613 1.50954,-0.64855 0.38725,-0.38725 0.58283,-1.50954 0.64855,-1.50954 0.0657,0 0.2613,1.12229 0.64855,1.50954 0.38725,0.38725 1.50954,0.58283 1.50954,0.64855 z" /><path
         id="path69"
         style="fill:#ffffff;filter:url(#filter107)"
         d="m 152.31618,385.15809 c 0,0.0657 -1.12229,0.2613 -1.50954,0.64855 -0.38725,0.38725 -0.58283,1.50954 -0.64855,1.50954 -0.0657,0 -0.2613,-1.12229 -0.64855,-1.50954 C 149.12229,385.41939 148,385.22381 148,385.15809 c 0,-0.0657 1.12229,-0.2613 1.50954,-0.64855 0.38725,-0.38725 0.58283,-1.50954 0.64855,-1.50954 0.0657,0 0.2613,1.12229 0.64855,1.50954 0.38725,0.38725 1.50954,0.58283 1.50954,0.64855 z" /><path
         id="path70"
         style="fill:#ffffff;filter:url(#filter106)"
         d="m 60.31618,326.15809 c 0,0.0657 -1.12229,0.2613 -1.50954,0.64855 -0.38725,0.38725 -0.58283,1.50954 -0.64855,1.50954 -0.0657,0 -0.2613,-1.12229 -0.64855,-1.50954 C 57.12229,326.41939 56,326.22381 56,326.15809 c 0,-0.0657 1.12229,-0.2613 1.50954,-0.64855 C 57.89679,325.12229 58.09237,324 58.15809,324 c 0.0657,0 0.2613,1.12229 0.64855,1.50954 0.38725,0.38725 1.50954,0.58283 1.50954,0.64855 z" /><path
         id="path71"
         style="fill:#ffffff;filter:url(#filter105)"
         d="m 41.31618,378.15809 c 0,0.0657 -1.12229,0.2613 -1.50954,0.64855 -0.38725,0.38725 -0.58283,1.50954 -0.64855,1.50954 -0.0657,0 -0.2613,-1.12229 -0.64855,-1.50954 C 38.12229,378.41939 37,378.22381 37,378.15809 c 0,-0.0657 1.12229,-0.2613 1.50954,-0.64855 C 38.89679,377.12229 39.09237,376 39.15809,376 c 0.0657,0 0.2613,1.12229 0.64855,1.50954 0.38725,0.38725 1.50954,0.58283 1.50954,0.64855 z" /><path
         id="path72"
         style="fill:#ffffff;filter:url(#filter104)"
         d="m 110.31618,274.15809 c 0,0.0657 -1.12229,0.2613 -1.50954,0.64855 -0.38725,0.38725 -0.58283,1.50954 -0.64855,1.50954 -0.0657,0 -0.2613,-1.12229 -0.64855,-1.50954 C 107.12229,274.41939 106,274.22381 106,274.15809 c 0,-0.0657 1.12229,-0.2613 1.50954,-0.64855 0.38725,-0.38725 0.58283,-1.50954 0.64855,-1.50954 0.0657,0 0.2613,1.12229 0.64855,1.50954 0.38725,0.38725 1.50954,0.58283 1.50954,0.64855 z" /><path
         id="path73"
         style="fill:#ffffff;filter:url(#filter103)"
         d="m 68.31618,223.15809 c 0,0.0657 -1.12229,0.2613 -1.50954,0.64855 -0.38725,0.38725 -0.58283,1.50954 -0.64855,1.50954 -0.0657,0 -0.2613,-1.12229 -0.64855,-1.50954 C 65.12229,223.41939 64,223.22381 64,223.15809 c 0,-0.0657 1.12229,-0.2613 1.50954,-0.64855 C 65.89679,222.12229 66.09237,221 66.15809,221 c 0.0657,0 0.2613,1.12229 0.64855,1.50954 0.38725,0.38725 1.50954,0.58283 1.50954,0.64855 z" /><path
         id="path74"
         style="fill:#ffffff;filter:url(#filter102)"
         d="m 166.31618,265.15809 c 0,0.0657 -1.12229,0.2613 -1.50954,0.64855 -0.38725,0.38725 -0.58283,1.50954 -0.64855,1.50954 -0.0657,0 -0.2613,-1.12229 -0.64855,-1.50954 C 163.12229,265.41939 162,265.22381 162,265.15809 c 0,-0.0657 1.12229,-0.2613 1.50954,-0.64855 0.38725,-0.38725 0.58283,-1.50954 0.64855,-1.50954 0.0657,0 0.2613,1.12229 0.64855,1.50954 0.38725,0.38725 1.50954,0.58283 1.50954,0.64855 z" /><path
         id="path75"
         style="fill:#ffffff;filter:url(#filter101)"
         d="m 67.31618,168.15809 c 0,0.0657 -1.12229,0.2613 -1.50954,0.64855 -0.38725,0.38725 -0.58283,1.50954 -0.64855,1.50954 -0.0657,0 -0.2613,-1.12229 -0.64855,-1.50954 C 64.12229,168.41939 63,168.22381 63,168.15809 c 0,-0.0657 1.12229,-0.2613 1.50954,-0.64855 C 64.89679,167.12229 65.09237,166 65.15809,166 c 0.0657,0 0.2613,1.12229 0.64855,1.50954 0.38725,0.38725 1.50954,0.58283 1.50954,0.64855 z" /><path
         id="path76"
         style="fill:#ffffff;filter:url(#filter100)"
         d="m 35.31618,107.15809 c 0,0.0657 -1.12229,0.2613 -1.50954,0.64855 -0.38725,0.38725 -0.58283,1.50954 -0.64855,1.50954 -0.0657,0 -0.2613,-1.12229 -0.64855,-1.50954 C 32.12229,107.41939 31,107.22381 31,107.15809 c 0,-0.0657 1.12229,-0.2613 1.50954,-0.64855 C 32.89679,106.12229 33.09237,105 33.15809,105 c 0.0657,0 0.2613,1.12229 0.64855,1.50954 0.38725,0.38725 1.50954,0.58283 1.50954,0.64855 z" /><path
         id="path77"
         style="fill:#ffffff;filter:url(#filter99)"
         d="m 139.31618,103.15809 c 0,0.0657 -1.12229,0.2613 -1.50954,0.64855 -0.38725,0.38725 -0.58283,1.50954 -0.64855,1.50954 -0.0657,0 -0.2613,-1.12229 -0.64855,-1.50954 C 136.12229,103.41939 135,103.22381 135,103.15809 c 0,-0.0657 1.12229,-0.2613 1.50954,-0.64855 0.38725,-0.38725 0.58283,-1.50954 0.64855,-1.50954 0.0657,0 0.2613,1.12229 0.64855,1.50954 0.38725,0.38725 1.50954,0.58283 1.50954,0.64855 z" /><path
         id="path78"
         style="fill:#ffffff;filter:url(#filter98)"
         d="m 37.31618,41.15809 c 0,0.0657 -1.12229,0.2613 -1.50954,0.64855 -0.38725,0.38725 -0.58283,1.50954 -0.64855,1.50954 -0.0657,0 -0.2613,-1.12229 -0.64855,-1.50954 C 34.12229,41.41939 33,41.22381 33,41.15809 c 0,-0.0657 1.12229,-0.2613 1.50954,-0.64855 C 34.89679,40.12229 35.09237,39 35.15809,39 c 0.0657,0 0.2613,1.12229 0.64855,1.50954 0.38725,0.38725 1.50954,0.58283 1.50954,0.64855 z" /><path
         id="path79"
         style="fill:#ffffff;filter:url(#filter97)"
         d="m 124.31618,26.15809 c 0,0.0657 -1.12229,0.2613 -1.50954,0.64855 -0.38725,0.38725 -0.58283,1.50954 -0.64855,1.50954 -0.0657,0 -0.2613,-1.12229 -0.64855,-1.50954 C 121.12229,26.41939 120,26.22381 120,26.15809 c 0,-0.0657 1.12229,-0.2613 1.50954,-0.64855 C 121.89679,25.12229 122.09237,24 122.15809,24 c 0.0657,0 0.2613,1.12229 0.64855,1.50954 0.38725,0.38725 1.50954,0.58283 1.50954,0.64855 z" /><path
         id="path80"
         style="fill:#ffffff;filter:url(#filter96)"
         d="m 385.31618,63.15809 c 0,0.0657 -1.12229,0.2613 -1.50954,0.64855 -0.38725,0.38725 -0.58283,1.50954 -0.64855,1.50954 -0.0657,0 -0.2613,-1.12229 -0.64855,-1.50954 C 382.12229,63.41939 381,63.22381 381,63.15809 c 0,-0.0657 1.12229,-0.2613 1.50954,-0.64855 C 382.89679,62.12229 383.09237,61 383.15809,61 c 0.0657,0 0.2613,1.12229 0.64855,1.50954 0.38725,0.38725 1.50954,0.58283 1.50954,0.64855 z" /><path
         id="path81"
         style="fill:#ffffff;filter:url(#filter95)"
         d="m 267.31618,59.15809 c 0,0.0657 -1.12229,0.2613 -1.50954,0.64855 -0.38725,0.38725 -0.58283,1.50954 -0.64855,1.50954 -0.0657,0 -0.2613,-1.12229 -0.64855,-1.50954 C 264.12229,59.41939 263,59.22381 263,59.15809 c 0,-0.0657 1.12229,-0.2613 1.50954,-0.64855 C 264.89679,58.12229 265.09237,57 265.15809,57 c 0.0657,0 0.2613,1.12229 0.64855,1.50954 0.38725,0.38725 1.50954,0.58283 1.50954,0.64855 z" /><path
         id="path82"
         style="fill:#ffffff;filter:url(#filter94)"
         d="m 337.31618,137.15809 c 0,0.0657 -1.12229,0.2613 -1.50954,0.64855 -0.38725,0.38725 -0.58283,1.50954 -0.64855,1.50954 -0.0657,0 -0.2613,-1.12229 -0.64855,-1.50954 C 334.12229,137.41939 333,137.22381 333,137.15809 c 0,-0.0657 1.12229,-0.2613 1.50954,-0.64855 0.38725,-0.38725 0.58283,-1.50954 0.64855,-1.50954 0.0657,0 0.2613,1.12229 0.64855,1.50954 0.38725,0.38725 1.50954,0.58283 1.50954,0.64855 z" /><path
         id="path83"
         style="fill:#ffffff;filter:url(#filter93)"
         d="m 422.31618,218.15809 c 0,0.0657 -1.12229,0.2613 -1.50954,0.64855 -0.38725,0.38725 -0.58283,1.50954 -0.64855,1.50954 -0.0657,0 -0.2613,-1.12229 -0.64855,-1.50954 C 419.12229,218.41939 418,218.22381 418,218.15809 c 0,-0.0657 1.12229,-0.2613 1.50954,-0.64855 0.38725,-0.38725 0.58283,-1.50954 0.64855,-1.50954 0.0657,0 0.2613,1.12229 0.64855,1.50954 0.38725,0.38725 1.50954,0.58283 1.50954,0.64855 z" /><path
         id="path84"
         style="fill:#ffffff;filter:url(#filter92)"
         d="m 340.31618,225.15809 c 0,0.0657 -1.12229,0.2613 -1.50954,0.64855 -0.38725,0.38725 -0.58283,1.50954 -0.64855,1.50954 -0.0657,0 -0.2613,-1.12229 -0.64855,-1.50954 C 337.12229,225.41939 336,225.22381 336,225.15809 c 0,-0.0657 1.12229,-0.2613 1.50954,-0.64855 0.38725,-0.38725 0.58283,-1.50954 0.64855,-1.50954 0.0657,0 0.2613,1.12229 0.64855,1.50954 0.38725,0.38725 1.50954,0.58283 1.50954,0.64855 z" /><path
         id="path85"
         style="fill:#ffffff;filter:url(#filter91)"
         d="m 416.31618,296.15809 c 0,0.0657 -1.12229,0.2613 -1.50954,0.64855 -0.38725,0.38725 -0.58283,1.50954 -0.64855,1.50954 -0.0657,0 -0.2613,-1.12229 -0.64855,-1.50954 C 413.12229,296.41939 412,296.22381 412,296.15809 c 0,-0.0657 1.12229,-0.2613 1.50954,-0.64855 0.38725,-0.38725 0.58283,-1.50954 0.64855,-1.50954 0.0657,0 0.2613,1.12229 0.64855,1.50954 0.38725,0.38725 1.50954,0.58283 1.50954,0.64855 z" /><path
         id="path86"
         style="fill:#ffffff;filter:url(#filter90)"
         d="m 450.31618,352.15809 c 0,0.0657 -1.12229,0.2613 -1.50954,0.64855 -0.38725,0.38725 -0.58283,1.50954 -0.64855,1.50954 -0.0657,0 -0.2613,-1.12229 -0.64855,-1.50954 C 447.12229,352.41939 446,352.22381 446,352.15809 c 0,-0.0657 1.12229,-0.2613 1.50954,-0.64855 0.38725,-0.38725 0.58283,-1.50954 0.64855,-1.50954 0.0657,0 0.2613,1.12229 0.64855,1.50954 0.38725,0.38725 1.50954,0.58283 1.50954,0.64855 z" /><path
         id="path87"
         style="fill:#ffffff;filter:url(#filter89)"
         d="m 460.31618,131.15809 c 0,0.0657 -1.12229,0.2613 -1.50954,0.64855 -0.38725,0.38725 -0.58283,1.50954 -0.64855,1.50954 -0.0657,0 -0.2613,-1.12229 -0.64855,-1.50954 C 457.12229,131.41939 456,131.22381 456,131.15809 c 0,-0.0657 1.12229,-0.2613 1.50954,-0.64855 0.38725,-0.38725 0.58283,-1.50954 0.64855,-1.50954 0.0657,0 0.2613,1.12229 0.64855,1.50954 0.38725,0.38725 1.50954,0.58283 1.50954,0.64855 z" /><path
         id="path88"
         style="fill:#ffffff;filter:url(#filter88)"
         d="m 479.31618,227.15809 c 0,0.0657 -1.12229,0.2613 -1.50954,0.64855 -0.38725,0.38725 -0.58283,1.50954 -0.64855,1.50954 -0.0657,0 -0.2613,-1.12229 -0.64855,-1.50954 C 476.12229,227.41939 475,227.22381 475,227.15809 c 0,-0.0657 1.12229,-0.2613 1.50954,-0.64855 0.38725,-0.38725 0.58283,-1.50954 0.64855,-1.50954 0.0657,0 0.2613,1.12229 0.64855,1.50954 0.38725,0.38725 1.50954,0.58283 1.50954,0.64855 z" /></g></g><g
     inkscape:groupmode="layer"
     id="layer3"
     inkscape:label="logo"
     style="display:inline"><g
       id="g172"
       inkscape:label="logo strokes light"
       style="display:inline;stroke:url(#linearGradient203);stroke-opacity:1;filter:url(#filter163);fill-opacity:1"
       transform="translate(-16.03394,47.875461)"><path
         style="opacity:1;fill-opacity:1;stroke:url(#linearGradient198);stroke-width:5;stroke-linecap:round;stroke-miterlimit:5.3;stroke-dasharray:none;stroke-opacity:1;paint-order:markers stroke fill"
         d="M 116.70066,173.04034 132.64946,62.494267"
         id="path159" /><path
         style="opacity:1;fill-opacity:1;stroke:url(#linearGradient199);stroke-width:5;stroke-linecap:round;stroke-dasharray:none;stroke-opacity:1;paint-order:markers stroke fill"
         d="M 132.64946,62.494267 246.55018,59.700659"
         id="path160" /><path
         style="opacity:1;fill-opacity:1;stroke:url(#linearGradient200);stroke-width:5;stroke-linecap:round;stroke-dasharray:none;stroke-opacity:1;paint-order:markers stroke fill"
         d="M 132.64946,62.494267 257.7346,374.38717"
         id="path161" /><path
         style="opacity:1;fill-opacity:1;stroke:url(#linearGradient201);stroke-width:5;stroke-linecap:round;stroke-dasharray:none;stroke-opacity:1;paint-order:markers stroke fill"
         d="m 132.64946,62.494267 222.049,244.815483"
         id="path162" /><path
         style="opacity:1;fill-opacity:1;stroke:url(#linearGradient202);stroke-width:5;stroke-linecap:round;stroke-dasharray:none;stroke-opacity:1;paint-order:markers stroke fill"
         d="M 439.7346,184.38717 132.64946,62.494267"
         id="path163" /></g><g
       id="g173"
       inkscape:label="logo strokes"
       style="display:inline;stroke:url(#linearGradient158);stroke-opacity:1;fill-opacity:1"
       transform="translate(-16.03394,47.875461)"><path
         style="opacity:1;fill-opacity:1;stroke:url(#linearGradient193);stroke-width:5;stroke-linecap:round;stroke-miterlimit:5.3;stroke-dasharray:none;stroke-opacity:1;paint-order:markers stroke fill"
         d="M 116.70066,173.04034 132.64946,62.494267"
         id="path13" /><path
         style="opacity:1;fill-opacity:1;stroke:url(#linearGradient194);stroke-width:5;stroke-linecap:round;stroke-dasharray:none;stroke-opacity:1;paint-order:markers stroke fill"
         d="M 132.64946,62.494267 246.55018,59.700659"
         id="path145" /><path
         style="opacity:1;fill-opacity:1;stroke:url(#linearGradient195);stroke-width:5;stroke-linecap:round;stroke-dasharray:none;stroke-opacity:1;paint-order:markers stroke fill"
         d="M 132.64946,62.494267 257.7346,374.38717"
         id="path146" /><path
         style="opacity:1;fill-opacity:1;stroke:url(#linearGradient196);stroke-width:5;stroke-linecap:round;stroke-dasharray:none;stroke-opacity:1;paint-order:markers stroke fill"
         d="m 132.64946,62.494267 222.049,244.815483"
         id="path147" /><path
         style="opacity:1;fill-opacity:1;stroke:url(#linearGradient197);stroke-width:5;stroke-linecap:round;stroke-dasharray:none;stroke-opacity:1;paint-order:markers stroke fill"
         d="M 439.7346,184.38717 132.64946,62.494267"
         id="path148" /></g><g
       id="g171"
       inkscape:label="logobase light"
       style="display:inline;stroke:url(#linearGradient158);stroke-opacity:1;filter:url(#filter169)"
       transform="translate(-16.03394,47.875461)"><path
         id="path164"
         style="fill:#ffffff;stroke-width:0.57086"
         d="m 146.35012,62.494267 c 0,0.4172 -7.12487,1.65887 -9.58333,4.11733 -2.45846,2.45846 -3.70013,9.58333 -4.11733,9.58333 -0.41722,0 -1.65887,-7.12487 -4.11733,-9.58333 -2.45846,-2.45846 -9.58333,-3.70013 -9.58333,-4.11733 0,-0.41722 7.12487,-1.65887 9.58333,-4.11733 2.45846,-2.45846 3.70011,-9.58333 4.11733,-9.58333 0.4172,0 1.65887,7.12487 4.11733,9.58333 2.45846,2.45846 9.58333,3.70011 9.58333,4.11733 z" /><path
         id="path165"
         style="fill:#ffffff;stroke-width:0.57086"
         d="m 130.40132,173.04034 c 0,0.4172 -7.12487,1.65887 -9.58333,4.11733 -2.45846,2.45846 -3.70013,9.58333 -4.11733,9.58333 -0.41722,0 -1.65887,-7.12487 -4.11733,-9.58333 C 110.12487,174.69921 103,173.45754 103,173.04034 c 0,-0.41722 7.12487,-1.65887 9.58333,-4.11733 2.45846,-2.45846 3.70011,-9.58333 4.11733,-9.58333 0.4172,0 1.65887,7.12487 4.11733,9.58333 2.45846,2.45846 9.58333,3.70011 9.58333,4.11733 z" /><path
         id="path166"
         style="fill:#ffffff;stroke-width:0.57086"
         d="m 260.25084,59.700657 c 0,0.4172 -7.12487,1.65887 -9.58333,4.11733 -2.45846,2.45846 -3.70013,9.58333 -4.11733,9.58333 -0.41722,0 -1.65887,-7.12487 -4.11733,-9.58333 -2.45846,-2.45846 -9.58333,-3.70013 -9.58333,-4.11733 0,-0.41722 7.12487,-1.65887 9.58333,-4.117327 C 244.89131,53.12487 246.13296,46 246.55018,46 c 0.4172,0 1.65887,7.12487 4.11733,9.58333 2.45846,2.458457 9.58333,3.700107 9.58333,4.117327 z" /><path
         id="path167"
         style="fill:#ffffff;stroke-width:0.57086"
         d="m 271.43526,374.38717 c 0,0.4172 -7.12487,1.65887 -9.58333,4.11733 -2.45846,2.45846 -3.70013,9.58333 -4.11733,9.58333 -0.41722,0 -1.65887,-7.12487 -4.11733,-9.58333 -2.45846,-2.45846 -9.58333,-3.70013 -9.58333,-4.11733 0,-0.41722 7.12487,-1.65887 9.58333,-4.11733 2.45846,-2.45846 3.70011,-9.58333 4.11733,-9.58333 0.4172,0 1.65887,7.12487 4.11733,9.58333 2.45846,2.45846 9.58333,3.70011 9.58333,4.11733 z" /><path
         id="path168"
         style="fill:#ffffff;stroke-width:0.57086"
         d="m 368.39912,307.30975 c 0,0.4172 -7.12487,1.65887 -9.58333,4.11733 -2.45846,2.45846 -3.70013,9.58333 -4.11733,9.58333 -0.41722,0 -1.65887,-7.12487 -4.11733,-9.58333 -2.45846,-2.45846 -9.58333,-3.70013 -9.58333,-4.11733 0,-0.41722 7.12487,-1.65887 9.58333,-4.11733 2.45846,-2.45846 3.70011,-9.58333 4.11733,-9.58333 0.4172,0 1.65887,7.12487 4.11733,9.58333 2.45846,2.45846 9.58333,3.70011 9.58333,4.11733 z" /><path
         id="path169"
         style="fill:#ffffff;stroke-width:0.57086"
         d="m 453.43526,184.38717 c 0,0.4172 -7.12487,1.65887 -9.58333,4.11733 -2.45846,2.45846 -3.70013,9.58333 -4.11733,9.58333 -0.41722,0 -1.65887,-7.12487 -4.11733,-9.58333 -2.45846,-2.45846 -9.58333,-3.70013 -9.58333,-4.11733 0,-0.41722 7.12487,-1.65887 9.58333,-4.11733 2.45846,-2.45846 3.70011,-9.58333 4.11733,-9.58333 0.4172,0 1.65887,7.12487 4.11733,9.58333 2.45846,2.45846 9.58333,3.70011 9.58333,4.11733 z" /></g><g
       id="g170"
       inkscape:label="logobase"
       style="display:inline"
       transform="translate(-16.03394,47.875461)"><path
         id="path4-99"
         style="fill:#ffffff"
         d="m 146.35012,62.494267 c 0,0.4172 -7.12487,1.65887 -9.58333,4.11733 -2.45846,2.45846 -3.70013,9.58333 -4.11733,9.58333 -0.41722,0 -1.65887,-7.12487 -4.11733,-9.58333 -2.45846,-2.45846 -9.58333,-3.70013 -9.58333,-4.11733 0,-0.41722 7.12487,-1.65887 9.58333,-4.11733 2.45846,-2.45846 3.70011,-9.58333 4.11733,-9.58333 0.4172,0 1.65887,7.12487 4.11733,9.58333 2.45846,2.45846 9.58333,3.70011 9.58333,4.11733 z" /><path
         id="path4-99-3"
         style="fill:#ffffff"
         d="m 130.40132,173.04034 c 0,0.4172 -7.12487,1.65887 -9.58333,4.11733 -2.45846,2.45846 -3.70013,9.58333 -4.11733,9.58333 -0.41722,0 -1.65887,-7.12487 -4.11733,-9.58333 C 110.12487,174.69921 103,173.45754 103,173.04034 c 0,-0.41722 7.12487,-1.65887 9.58333,-4.11733 2.45846,-2.45846 3.70011,-9.58333 4.11733,-9.58333 0.4172,0 1.65887,7.12487 4.11733,9.58333 2.45846,2.45846 9.58333,3.70011 9.58333,4.11733 z" /><path
         id="path4-99-34"
         style="fill:#ffffff"
         d="m 260.25084,59.700657 c 0,0.4172 -7.12487,1.65887 -9.58333,4.11733 -2.45846,2.45846 -3.70013,9.58333 -4.11733,9.58333 -0.41722,0 -1.65887,-7.12487 -4.11733,-9.58333 -2.45846,-2.45846 -9.58333,-3.70013 -9.58333,-4.11733 0,-0.41722 7.12487,-1.65887 9.58333,-4.117327 C 244.89131,53.12487 246.13296,46 246.55018,46 c 0.4172,0 1.65887,7.12487 4.11733,9.58333 2.45846,2.458457 9.58333,3.700107 9.58333,4.117327 z" /><path
         id="path4-99-1"
         style="fill:#ffffff"
         d="m 271.43526,374.38717 c 0,0.4172 -7.12487,1.65887 -9.58333,4.11733 -2.45846,2.45846 -3.70013,9.58333 -4.11733,9.58333 -0.41722,0 -1.65887,-7.12487 -4.11733,-9.58333 -2.45846,-2.45846 -9.58333,-3.70013 -9.58333,-4.11733 0,-0.41722 7.12487,-1.65887 9.58333,-4.11733 2.45846,-2.45846 3.70011,-9.58333 4.11733,-9.58333 0.4172,0 1.65887,7.12487 4.11733,9.58333 2.45846,2.45846 9.58333,3.70011 9.58333,4.11733 z" /><path
         id="path4-99-33"
         style="fill:#ffffff"
         d="m 368.39912,307.30975 c 0,0.4172 -7.12487,1.65887 -9.58333,4.11733 -2.45846,2.45846 -3.70013,9.58333 -4.11733,9.58333 -0.41722,0 -1.65887,-7.12487 -4.11733,-9.58333 -2.45846,-2.45846 -9.58333,-3.70013 -9.58333,-4.11733 0,-0.41722 7.12487,-1.65887 9.58333,-4.11733 2.45846,-2.45846 3.70011,-9.58333 4.11733,-9.58333 0.4172,0 1.65887,7.12487 4.11733,9.58333 2.45846,2.45846 9.58333,3.70011 9.58333,4.11733 z" /><path
         id="path4-99-6"
         style="fill:#ffffff"
         d="m 453.43526,184.38717 c 0,0.4172 -7.12487,1.65887 -9.58333,4.11733 -2.45846,2.45846 -3.70013,9.58333 -4.11733,9.58333 -0.41722,0 -1.65887,-7.12487 -4.11733,-9.58333 -2.45846,-2.45846 -9.58333,-3.70013 -9.58333,-4.11733 0,-0.41722 7.12487,-1.65887 9.58333,-4.11733 2.45846,-2.45846 3.70011,-9.58333 4.11733,-9.58333 0.4172,0 1.65887,7.12487 4.11733,9.58333 2.45846,2.45846 9.58333,3.70011 9.58333,4.11733 z" /></g></g></svg>
